<svg width="17" height="13" viewBox="0 0 17 13" fill="none" xmlns="http://www.w3.org/2000/svg">
<path d="M15.5833 0.125H1.41668C1.22882 0.125 1.04865 0.199628 0.915809 0.332466C0.782971 0.465304 0.708344 0.645472 0.708344 0.833333V12.1667C0.708344 12.3545 0.782971 12.5347 0.915809 12.6675C1.04865 12.8004 1.22882 12.875 1.41668 12.875H15.5833C15.7712 12.875 15.9514 12.8004 16.0842 12.6675C16.217 12.5347 16.2917 12.3545 16.2917 12.1667V0.833333C16.2917 0.645472 16.217 0.465304 16.0842 0.332466C15.9514 0.199628 15.7712 0.125 15.5833 0.125ZM14.875 11.4583H2.12501V4.71287L8.23651 7.15804C8.40578 7.2251 8.59424 7.2251 8.76351 7.15804L14.875 4.71287V11.4583ZM14.875 3.18712L8.50001 5.73712L2.12501 3.18712V1.54167H14.875V3.18712Z" fill="white"/>
</svg>

