<?xml version="1.0" encoding="utf-8"?><svg viewBox="0 0 139 40" xmlns="http://www.w3.org/2000/svg" xmlns:xlink="http://www.w3.org/1999/xlink"><style>:root>svg{display:none}:root>svg:target{display:block}</style><svg fill="none" viewBox="0 0 16 16" id="calendar" xmlns="http://www.w3.org/2000/svg"><rect x="1" y="1" width="14" height="14" rx="2" stroke="#C4C4C4" stroke-width="2"/><path fill="#C4C4C4" d="M4 4h2v2H4zM4 7h2v2H4zM4 10h2v2H4zM7 4h2v2H7zM7 7h2v2H7zM7 10h2v2H7zM10 4h2v2h-2zM10 7h2v2h-2z"/></svg><svg fill="none" viewBox="0 0 139 28" id="logo-manao" xmlns="http://www.w3.org/2000/svg"><path d="M138.653 13.129a9.584 9.584 0 01-.705 3.664 9.345 9.345 0 01-2.058 3.083 9.555 9.555 0 01-3.076 2.073 9.187 9.187 0 01-3.591.721 9.335 9.335 0 01-6.696-2.794 9.22 9.22 0 01-2.05-3.07 9.628 9.628 0 01-.7-3.677 9.69 9.69 0 01.7-3.677 9.323 9.323 0 012.05-3.096 9.327 9.327 0 013.064-2.06 9.43 9.43 0 013.632-.709c1.268 0 2.471.238 3.611.708a9.305 9.305 0 013.056 2.061 9.647 9.647 0 012.058 3.113 9.625 9.625 0 01.705 3.66zm-78.68.076c-.033-.14-.087-.53-.157-1.166-.066-.53-.123-.971-.169-1.32a9.565 9.565 0 01-.308 1.244c-.132.415-.301.835-.503 1.267l-4.268 8.957h-.696l-4.276-9.156a13.874 13.874 0 01-.869-2.311c-.008.382-.037.78-.09 1.2-.054.42-.132.857-.235 1.31l-1.894 8.957h-2.644l4.008-18.195h.513l4.868 10.718c.078.179.201.484.366.904.165.424.362.945.597 1.565.169-.522.437-1.184.799-1.985.095-.216.169-.382.214-.496l4.756-10.706h.51l4.098 18.195h-2.668l-1.952-8.982zm20.109 8.982l-2.002-4.682h-7l-2.05 4.682h-3.015l8.232-18.195h.642l8.223 18.195h-3.03zm-7.94-7.15h4.925l-1.811-4.147a15.963 15.963 0 01-.326-.912 21.027 21.027 0 01-.337-1.15c-.095.4-.198.768-.31 1.112-.106.343-.217.661-.329.95l-1.811 4.147zm12.63 7.15V3.992h.717l10.508 10.405c.305.313.613.649.93 1.005.313.356.643.759.988 1.204V3.994h2.644v18.193h-.72l-10.723-10.61c-.305-.31-.601-.632-.885-.971-.288-.34-.556-.696-.816-1.07v12.65h-2.643zm31.513 0l-2.001-4.682h-7l-2.051 4.682h-3.014l8.231-18.195h.642l8.224 18.195h-3.031zm-7.939-7.15h4.925l-1.812-4.147a15.978 15.978 0 01-.325-.912 21.013 21.013 0 01-.338-1.15 14.67 14.67 0 01-.309 1.112c-.107.343-.218.661-.329.95l-1.812 4.147zm27.317-1.908c0-.92-.165-1.794-.49-2.621a6.832 6.832 0 00-1.404-2.21 6.212 6.212 0 00-2.067-1.471 6.134 6.134 0 00-2.479-.517 6.203 6.203 0 00-4.575 1.989 6.611 6.611 0 00-1.4 2.196 7.213 7.213 0 00-.482 2.634c0 .92.161 1.79.482 2.608a6.79 6.79 0 001.4 2.196 6.257 6.257 0 002.088 1.48c.778.34 1.61.51 2.487.51.86 0 1.676-.17 2.454-.51a6.447 6.447 0 002.092-1.48 6.842 6.842 0 001.404-2.2c.325-.827.49-1.693.49-2.604z" fill="#fff"/><path fill-rule="evenodd" clip-rule="evenodd" d="M17.517 8.358L13.133 0 0 .055l12.023 19.18L17.517 28l5.493-8.765L35.034.055 21.9 0l-4.384 8.358zM.832 3.021L7.27 13.268.832 24.978V3.021zM34.22 3.021l-6.436 10.247 6.436 11.71V3.021z" fill="#fff"/></svg><svg fill="none" viewBox="0 0 17 13" id="mail-icon" xmlns="http://www.w3.org/2000/svg"><path d="M15.583.125H1.417a.708.708 0 00-.709.708v11.334a.708.708 0 00.709.708h14.166a.708.708 0 00.709-.708V.833a.709.709 0 00-.709-.708zm-.708 11.333H2.125V4.713l6.112 2.445c.169.067.357.067.527 0l6.111-2.445v6.745zm0-8.27L8.5 5.737l-6.375-2.55V1.541h12.75v1.645z" fill="#fff"/></svg><svg fill="none" viewBox="0 0 96 20" id="manao-post" xmlns="http://www.w3.org/2000/svg"><path d="M96 9.09c0 .896-.162 1.741-.487 2.537a6.476 6.476 0 01-1.426 2.134 6.614 6.614 0 01-2.13 1.436c-.79.332-1.62.5-2.486.5a6.464 6.464 0 01-4.636-1.935 6.39 6.39 0 01-1.42-2.126 6.677 6.677 0 01-.484-2.546c0-.901.162-1.75.484-2.546a6.46 6.46 0 011.42-2.143 6.46 6.46 0 012.121-1.427 6.53 6.53 0 012.515-.49c.878 0 1.71.164 2.5.49A6.438 6.438 0 0194.088 4.4a6.685 6.685 0 011.425 2.155C95.838 7.358 96 8.2 96 9.09zm-54.476.053a9.889 9.889 0 01-.108-.808c-.046-.367-.086-.672-.117-.913a6.621 6.621 0 01-.214.86 7.291 7.291 0 01-.348.878l-2.955 6.202H37.3l-2.96-6.34a9.57 9.57 0 01-.602-1.6c-.006.265-.026.54-.063.831-.037.29-.091.593-.162.907L32.2 15.362H30.37l2.775-12.598h.356l3.37 7.421c.054.123.14.335.254.626.114.293.25.654.413 1.083.117-.361.302-.82.553-1.374.066-.15.117-.264.148-.344l3.293-7.412h.353l2.838 12.598h-1.848l-1.351-6.22zm13.923 6.219L54.06 12.12h-4.847l-1.42 3.242h-2.086l5.699-12.598h.444l5.694 12.598h-2.098zm-5.497-4.95h3.41L52.105 7.54a11.02 11.02 0 01-.225-.631 14.56 14.56 0 01-.234-.796c-.065.276-.136.531-.214.769-.074.238-.15.458-.228.658L49.95 10.41zm8.744 4.95V2.764h.497l7.275 7.204a17.808 17.808 0 011.329 1.53V2.766h1.83v12.596h-.498l-7.425-7.347c-.21-.214-.416-.437-.613-.672a9.648 9.648 0 01-.565-.74v8.759h-1.83zm21.82 0l-1.386-3.242H74.28l-1.42 3.242h-2.087l5.7-12.598h.444l5.694 12.598h-2.099zm-5.498-4.95h3.41L77.172 7.54a11.097 11.097 0 01-.225-.631 14.471 14.471 0 01-.234-.796 10.01 10.01 0 01-.214.769c-.074.238-.151.458-.228.658l-1.255 2.871zM93.93 9.09c0-.637-.114-1.242-.34-1.815a4.727 4.727 0 00-.971-1.53 4.299 4.299 0 00-1.432-1.018 4.246 4.246 0 00-1.716-.358 4.297 4.297 0 00-3.167 1.377c-.422.44-.747.948-.97 1.52a4.99 4.99 0 00-.333 1.824c0 .637.11 1.24.333 1.806.223.566.548 1.074.97 1.52a4.27 4.27 0 003.168 1.377 4.2 4.2 0 001.698-.352 4.458 4.458 0 001.449-1.024c.422-.447.746-.955.972-1.524.225-.573.34-1.172.34-1.803z" fill="#3F0F72"/><path fill-rule="evenodd" clip-rule="evenodd" d="M12.128 5.787L9.093 0 0 .038l8.325 13.28 3.804 6.069 3.803-6.069L24.256.038 15.164 0l-3.036 5.787zM.576 2.092l4.457 7.095-4.457 8.108V2.092zM23.693 2.092l-4.456 7.095 4.456 8.108V2.092z" fill="#3F0F72"/></svg><svg fill="none" viewBox="0 0 18 18" id="next-slider" xmlns="http://www.w3.org/2000/svg"><path stroke="#791281" stroke-width="2" stroke-linecap="round" stroke-linejoin="round" d="M9 15.739l7.029-7.03M15.851 8.444l-7.029-7.03M14.452 8.709H1"/></svg><svg fill="none" viewBox="0 0 18 18" id="prev-slider" xmlns="http://www.w3.org/2000/svg"><path stroke="#D3D0D6" stroke-width="2" stroke-linecap="round" stroke-linejoin="round" d="M9 2.261l-7.029 7.03M2.148 9.556l7.03 7.03M3.548 9.291H17"/></svg><svg fill="none" viewBox="0 0 37 37" id="services-1" xmlns="http://www.w3.org/2000/svg"><mask id="ga" fill="#fff"><path fill-rule="evenodd" clip-rule="evenodd" d="M15 1a1 1 0 011-1h5a1 1 0 011 1v3.715c0 .45.301.84.726.985.62.212 1.222.47 1.799.768.406.21.906.151 1.23-.172L28.4 3.651a1 1 0 011.414 0l3.535 3.535a1 1 0 010 1.414l-2.702 2.703c-.32.32-.382.812-.178 1.215.286.566.535 1.155.745 1.764.146.421.534.718.98.718H36a1 1 0 011 1v5a1 1 0 01-1 1h-3.5a1.05 1.05 0 00-1 .789 14.226 14.226 0 01-.732 2.063c-.176.395-.105.861.201 1.167l2.38 2.38a1 1 0 010 1.415l-3.535 3.535a1 1 0 01-1.415 0l-2-2a1.053 1.053 0 00-1.278-.146c-.756.442-1.557.811-2.395 1.097a1.053 1.053 0 00-.726.985V36a1 1 0 01-1 1h-5a1 1 0 01-1-1v-2.715c0-.45-.301-.84-.726-.985a13.184 13.184 0 01-2.395-1.097c-.412-.24-.94-.192-1.277.145L8.6 33.35a1 1 0 01-1.415 0l-3.535-3.535a1 1 0 010-1.415l2.38-2.38c.306-.305.377-.772.201-1.167-.294-.662-.54-1.35-.732-2.063a1.05 1.05 0 00-1-.789H1a1 1 0 01-1-1v-5a1 1 0 011-1h3.806c.446 0 .834-.297.98-.718.21-.609.46-1.198.745-1.764a1.049 1.049 0 00-.178-1.215L3.65 8.6a1 1 0 010-1.414l3.535-3.535a1 1 0 011.414 0l2.646 2.645c.323.323.823.383 1.23.172a13.146 13.146 0 011.798-.768c.425-.146.726-.536.726-.985V1z"/></mask><path d="M28.4 3.65l1.414 1.415L28.4 3.65zm1.414 0l1.414-1.413-1.414 1.414zm3.535 3.536l1.415-1.414-1.415 1.414zm0 1.414l1.415 1.415L33.349 8.6zm0 21.214l-1.414-1.415 1.414 1.415zm-3.535 3.535l1.414 1.414-1.414-1.414zm-1.415 0l-1.414 1.414L28.4 33.35zm-19.798 0l-1.415-1.414 1.415 1.414zm-1.415 0l1.415-1.414-1.415 1.414zm-3.535-3.535l-1.414 1.414 1.414-1.414zm0-1.415l-1.414-1.414L3.65 28.4zm0-19.799l-1.414 1.415L3.65 8.6zm0-1.414L5.065 8.6 3.65 7.186zm3.535-3.535L5.772 2.236l1.414 1.415zm1.414 0l1.415-1.415L8.6 3.651zM5.5 22.789l-1.93.522 1.93-.522zm6.379 8.414l-1.01 1.727 1.01-1.727zm-1.277.145l-1.415-1.414 1.415 1.414zM6.03 26.02l1.414 1.415-1.414-1.415zm.201-1.167l1.828-.812-1.828.812zM22.726 32.3l.647 1.893-.647-1.893zm3.028-26.004L24.34 4.882l1.414 1.414zM14.274 32.3l-.647 1.893.647-1.893zM5.786 14.282l-1.89-.653 1.89.653zM31.5 22.789l1.93.522-1.93-.522zm-5.102 8.56l1.415-1.415-1.415 1.414zm-1.277-.146l-1.01-1.726 1.01 1.726zm5.526-19.9l-1.414-1.415 1.414 1.415zm-.178 1.215l1.785-.901-1.785.901zM22.726 5.7l-.646 1.892.646-1.892zM16-2a3 3 0 00-3 3h4a1 1 0 01-1 1v-4zm5 0h-5v4h5v-4zm3 3a3 3 0 00-3-3v4a1 1 0 01-1-1h4zm0 3.715V1h-4v3.715h4zm-1.92 2.877c.525.18 1.035.398 1.525.652l1.84-3.552a15.148 15.148 0 00-2.072-.885L22.08 7.592zm4.905-5.355L24.34 4.882 27.17 7.71l2.645-2.645-2.829-2.829zm4.243 0a3 3 0 00-4.243 0l2.829 2.828a1 1 0 01-1.414 0l2.828-2.829zm3.535 3.535l-3.535-3.536L28.4 5.066 31.935 8.6l2.829-2.828zm0 4.243a3 3 0 000-4.243L31.936 8.6a1 1 0 010-1.414l2.829 2.829zm-2.702 2.702l2.703-2.702-2.829-2.829-2.702 2.702 2.828 2.829zm-3.378.702c.246.486.46.992.64 1.515l3.782-1.305a16.193 16.193 0 00-.85-2.012l-3.572 1.802zM36 13h-3.806v4H36v-4zm3 3a3 3 0 00-3-3v4a1 1 0 01-1-1h4zm0 5v-5h-4v5h4zm-3 3a3 3 0 003-3h-4a1 1 0 011-1v4zm-3.5 0H36v-4h-3.5v4zm-2.93-1.733a12.228 12.228 0 01-.63 1.773l3.655 1.624c.336-.755.616-1.541.835-2.353l-3.86-1.044zm5.193 4.718l-2.38-2.38-2.828 2.829 2.38 2.38 2.828-2.829zm0 4.243a3 3 0 000-4.243l-2.828 2.829a1 1 0 010-1.415l2.828 2.829zm-3.535 3.535l3.535-3.535-2.828-2.829-3.536 3.536 2.829 2.828zm-4.243 0a3 3 0 004.243 0l-2.829-2.828a1 1 0 011.415 0l-2.829 2.828zm-2-2l2 2 2.829-2.828-2.001-2.001-2.829 2.828zm-.873-3.286c-.643.376-1.323.688-2.032.93l1.293 3.786c.965-.33 1.888-.755 2.758-1.263l-2.02-3.453zM24 36v-2.715h-4V36h4zm-3 3a3 3 0 003-3h-4a1 1 0 011-1v4zm-5 0h5v-4h-5v4zm-3-3a3 3 0 003 3v-4a1 1 0 011 1h-4zm0-2.715V36h4v-2.715h-4zm1.92-2.877a11.181 11.181 0 01-2.031-.931l-2.02 3.453c.87.508 1.793.933 2.758 1.263l1.293-3.785zm-4.905 4.355l2-2-2.828-2.829-2 2.001 2.828 2.828zm-4.243 0a3 3 0 004.243 0l-2.829-2.828a1 1 0 011.415 0l-2.829 2.828zm-3.535-3.535l3.535 3.535 2.829-2.828-3.536-3.536-2.828 2.829zm0-4.243a3 3 0 000 4.243l2.828-2.829a1 1 0 010 1.415l-2.828-2.829zm2.38-2.38l-2.38 2.38 2.828 2.829 2.38-2.38-2.828-2.829zm3.443-.565a12.232 12.232 0 01-.63-1.773L3.57 23.31c.22.812.5 1.598.835 2.353L8.06 24.04zM1 24h3.5v-4H1v4zm-3-3a3 3 0 003 3v-4a1 1 0 011 1h-4zm0-5v5h4v-5h-4zm3-3a3 3 0 00-3 3h4a1 1 0 01-1 1v-4zm3.806 0H1v4h3.806v-4zm2.87 1.934c.181-.523.395-1.029.64-1.515l-3.57-1.802c-.327.646-.611 1.318-.85 2.012l3.78 1.305zm-5.44-4.92l2.703 2.703 2.828-2.829-2.702-2.702-2.829 2.829zm0-4.242a3 3 0 000 4.243l2.829-2.829a1 1 0 010 1.414L2.236 5.772zm3.536-3.536L2.236 5.772 5.066 8.6 8.6 5.065 5.772 2.236zm4.243 0a3 3 0 00-4.243 0L8.6 5.065a1 1 0 01-1.414 0l2.829-2.829zm2.645 2.646l-2.645-2.646-2.829 2.829L9.832 7.71l2.828-2.828zm.735 3.362c.49-.254 1-.472 1.525-.652l-1.293-3.785c-.715.244-1.408.541-2.072.885l1.84 3.552zM13 1v3.715h4V1h-4zm1.92 6.592c1.17-.4 2.08-1.506 2.08-2.877h-4c0-.473.308-.799.627-.908l1.293 3.785zM8.317 13.42c.563-1.117.424-2.556-.55-3.53L4.94 12.716a.952.952 0 01-.193-1.1l3.57 1.802zm-.886 8.848C7.089 21.004 5.942 20 4.499 20v4a.951.951 0 01-.93-.689l3.862-1.044zm5.458 7.21c-1.134-.663-2.67-.575-3.702.457l2.829 2.828a.947.947 0 01-1.147.168l2.02-3.453zm16.434-14.543c.404 1.17 1.511 2.066 2.871 2.066v-4c.468 0 .798.303.91.63l-3.78 1.304zm-21.878 12.5c.932-.933 1.102-2.297.615-3.394l-3.655 1.624a.953.953 0 01.212-1.059l2.828 2.829zM9.832 7.71c.987.987 2.445 1.113 3.563.534l-1.84-3.552a.949.949 0 011.105.19L9.832 7.71zM22.08 30.408c-1.17.4-2.08 1.505-2.08 2.877h4a.948.948 0 01-.627.908l-1.293-3.785zm1.525-22.164c1.118.58 2.576.454 3.564-.534L24.34 4.882a.949.949 0 011.105-.19l-1.84 3.552zM17 33.285c0-1.371-.91-2.478-2.08-2.877l-1.293 3.785a.948.948 0 01-.627-.908h4zM4.806 17c1.36 0 2.467-.897 2.87-2.066l-3.78-1.305a.953.953 0 01.91-.629v4zm24.134 7.04c-.487 1.097-.317 2.462.615 3.394l2.828-2.829c.32.32.348.753.212 1.059L28.94 24.04zM32.5 20c-1.442 0-2.59 1.004-2.93 2.267l3.86 1.044a.951.951 0 01-.93.689v-4zm-4.687 9.934c-1.032-1.032-2.568-1.12-3.701-.457l2.019 3.453a.947.947 0 01-1.147-.168l2.829-2.828zm1.42-20.046c-.974.975-1.113 2.414-.55 3.531l3.572-1.802a.952.952 0 01-.194 1.1l-2.828-2.829zM20 4.715c0 1.371.91 2.478 2.08 2.877l1.293-3.785c.319.109.627.435.627.908h-4z" fill="#fff" mask="url(#ga)"/><circle cx="18.5" cy="18.5" r="6.5" stroke="#fff" stroke-width="2"/></svg><svg fill="none" viewBox="0 0 26 34" id="services-2" xmlns="http://www.w3.org/2000/svg"><path d="M15.8 1H2a1 1 0 00-1 1v30a1 1 0 001 1h21.2a1 1 0 001-1V9" stroke="#fff" stroke-width="2"/><path d="M22.508 8H16.8V2.54L22.508 8zM5 8.8h7.2M5 13.6h15.2M5 18.4h15.2M5 23.2h15.2M5 28h15.2" stroke="#fff" stroke-width="2"/></svg><svg fill="none" viewBox="0 0 30 30" id="services-3" xmlns="http://www.w3.org/2000/svg"><mask id="ia" fill="#fff"><rect y="12" width="17.143" height="17.143" rx="1"/></mask><rect y="12" width="17.143" height="17.143" rx="1" stroke="#fff" stroke-width="4" mask="url(#ia)"/><mask id="ib" fill="#fff"><rect width="30" height="29.143" rx="1"/></mask><rect width="30" height="29.143" rx="1" stroke="#fff" stroke-width="4" mask="url(#ib)"/><path stroke="#fff" stroke-width="2" d="M17 8h8M24 15V7M24 8l-6.293 5.707"/></svg><svg fill="none" viewBox="0 0 36 26" id="services-4" xmlns="http://www.w3.org/2000/svg"><path d="M34.01 9.975a4.148 4.148 0 00-4.083-.184l-.705.354v-6.81a1.06 1.06 0 00-1.056-1.061c-2.636 0-4.85 1.853-5.425 4.332L17.051.879a1.05 1.05 0 00-1.492 0c-.168.17-.325.348-.47.533a5.92 5.92 0 00-.84-1.078 1.05 1.05 0 00-1.513-.023L5.763 7.328a11.982 11.982 0 00-3.458 7.453h-1.25C.472 14.78 0 15.256 0 15.842v9.097C0 25.524.472 26 1.055 26h11.297c.163 0 .325-.038.471-.112l22.594-11.37c.357-.18.583-.548.583-.95a4.205 4.205 0 00-1.99-3.593zM14.227 8.634c.168-.17.325-.348.47-.533.24.396.528.765.862 1.1l2.516 2.533v3.39l-4.084 1.644-2.227-4.482a1.217 1.217 0 01.225-1.4l2.238-2.252zm8.367 9.963l-10.492 5.28H2.11v-6.973h1.205c.583 0 1.055-.475 1.055-1.062A9.884 9.884 0 017.255 8.83l6.12-6.16a3.76 3.76 0 01.456 1.803c0 1.004-.39 1.949-1.096 2.66l-2.237 2.252a3.347 3.347 0 00-.621 3.85l2.661 5.356c.245.494.826.716 1.335.511l5.648-2.274c.4-.161.663-.551.663-.985v-4.548c0-.282-.11-.552-.309-.751L17.051 7.7a3.75 3.75 0 01-1.095-2.66c0-.64.158-1.257.455-1.803l6.183 6.222v9.137zm4.518-6.702c0 2.101-.892 4.04-2.409 5.378v-9.39a3.49 3.49 0 012.41-3.321v7.333zm1.318 3.766a9.327 9.327 0 00.77-3.131l1.67-.84a2.063 2.063 0 012.03.091c.442.275.757.693.901 1.176l-5.372 2.704z" fill="#fff"/></svg><svg fill="none" viewBox="0 0 31 34" id="services-5" xmlns="http://www.w3.org/2000/svg"><path d="M12.967 6.114h2.948v3.93h2.303c3.715 0 7.407-1.44 10.184-4.218l.695-.695-.694-.695A14.397 14.397 0 0018.218.218h-2.303v3.93h-2.948V2.183H1.174v5.896h11.793V6.114zm4.913-3.931c.2.034 4.475-.371 8.38 2.948a12.345 12.345 0 01-8.042 2.948h-.338V2.183zM7.07 6.113H3.14V4.149h3.93v1.966zm3.931 0H9.036V4.149H11v1.966z" fill="#fff"/><path stroke="#fff" stroke-width="2" d="M14 16h10v6H14zM1 28h12v5H1zM13 28h11v5H13zM9 23h11v5H9zM20 23h10v5H20z"/></svg><svg fill="none" viewBox="0 0 26 39" id="services-6" xmlns="http://www.w3.org/2000/svg"><mask id="la" fill="#fff"><path d="M0 2a2 2 0 012-2h22a2 2 0 012 2v19.215a2 2 0 01-2 2h-5.531c-1.212 0-2.32.729-2.603 1.908-.381 1.592-.604 3.78.6 4.932 2.034 1.945 2.005 4.98 0 6.84-1.943 1.803-4.989 1.803-6.933 0-2.004-1.86-2.033-4.895 0-6.84 1.205-1.153.982-3.34.6-4.932-.282-1.179-1.39-1.908-2.602-1.908H2a2 2 0 01-2-2V2z"/></mask><path d="M9.533 36.895l1.36-1.467-1.36 1.467zm6.934 0l-1.36-1.467 1.36 1.467zM2 2h22v-4H2v4zm22 0v19.215h4V2h-4zM2 21.215V2h-4v19.215h4zm5.531 0H2v4h5.531v-4zm16.469 0h-5.531v4H24v-4zm-8.893 14.213a3.12 3.12 0 01-4.213 0l-2.72 2.933c2.71 2.515 6.942 2.515 9.653 0l-2.72-2.933zm-4.213 0c-1.147-1.063-1.193-2.766.022-3.928l-2.765-2.89c-2.852 2.728-2.84 7.096.022 9.75l2.72-2.932zm.022-3.928c1.121-1.073 1.449-2.5 1.51-3.64.061-1.161-.135-2.316-.347-3.203l-3.89.932c.169.705.275 1.44.242 2.059-.034.638-.197.882-.28.962l2.765 2.89zm3.005-6.843c-.212.887-.408 2.042-.346 3.202.06 1.142.388 2.568 1.51 3.64l2.764-2.89c-.083-.08-.246-.323-.28-.962-.033-.619.073-1.353.242-2.058l-3.89-.932zm1.163 6.843c1.215 1.162 1.17 2.864.023 3.928l2.72 2.933c2.862-2.655 2.874-7.023.022-9.751l-2.765 2.89zm3.385-10.285c-1.963 0-4.011 1.204-4.548 3.442l3.89.932a.387.387 0 01.167-.232.857.857 0 01.491-.142v-4zm-10.938 4c.211 0 .382.064.491.142.1.07.147.148.167.232l3.89-.932c-.537-2.238-2.585-3.442-4.548-3.442v4zm-9.531-4a4 4 0 004 4v-4h-4zm26 0v4a4 4 0 004-4h-4zM24 2h4a4 4 0 00-4-4v4zM2-2a4 4 0 00-4 4h4v-4z" fill="#fff" mask="url(#la)"/><path stroke="#fff" stroke-width="2" d="M0 17.24h26M0 12.095h26"/></svg><svg fill="none" viewBox="0 0 41 40" id="services-7" xmlns="http://www.w3.org/2000/svg"><path d="M3.003 31.216a1 1 0 010-1.415l22.05-22.05a1 1 0 01.547-.28l-.16-.984.16.984 7.956-1.293a1 1 0 011.148 1.147l.95.155-.95-.155-1.293 7.956a1 1 0 01-.28.547l-22.05 22.05a1 1 0 01-1.415 0l-6.663-6.662zM8.707 25.293l8.136 8.135" stroke="#fff" stroke-width="2"/><path d="M23.255 9.492l1.355 2.711 3.051 1.017.678 2.712 3.051 1.695M11.87 21.969l-8.034-8.104a2 2 0 01.006-2.823l5.244-5.244a2 2 0 012.883.056l7.696 8.32m.251 15.8l6.632 6.598a2 2 0 002.825-.004l5.265-5.265a2 2 0 00-.033-2.86l-6.73-6.428M8.26 12.293l-3.151 3.151M28.426 32.459l-3.151 3.151M10.15 16.704l-1.89 1.891M24.015 30.569l-1.891 1.89" stroke="#fff" stroke-width="2"/></svg><svg fill="none" viewBox="0 0 32 32" id="services-8" xmlns="http://www.w3.org/2000/svg"><path d="M21.217 1.932A14.969 14.969 0 0016 1C7.716 1 1 7.716 1 16c0 4.946 2.394 9.333 6.086 12.065m2.787 1.63A14.948 14.948 0 0016 31c8.284 0 15-6.716 15-15 0-5.148-2.593-9.69-6.544-12.391M1.91 28.134h6.226M7.265 29.043v-6.225M29.045 2.818h-6.227M23.69 1.91v6.224" stroke="#fff" stroke-width="2"/></svg><svg fill="none" viewBox="0 0 16 16" id="tel-icon" xmlns="http://www.w3.org/2000/svg"><path d="M6.46 4.958a2.073 2.073 0 00-.433-2.295l-1.39-1.39A2.044 2.044 0 002.867.69a2.067 2.067 0 00-1.534 1.091A5.719 5.719 0 00.85 5.905c.886 3.52 5.723 8.358 9.243 9.244.475.12.963.182 1.453.182.932 0 1.849-.23 2.671-.666a2.072 2.072 0 00.509-3.301l-1.388-1.39a2.076 2.076 0 00-2.296-.435 3.24 3.24 0 00-.98.658c-.341.341-1.594-.153-2.85-1.408C5.955 7.535 5.462 6.281 5.8 5.94c.279-.283.503-.616.66-.981zm-.193 4.775c1.529 1.528 3.585 2.558 4.733 1.408.17-.162.366-.291.582-.383a.733.733 0 01.81.16l1.39 1.39a.725.725 0 01.206.627.742.742 0 01-.394.551 4.346 4.346 0 01-3.177.37c-3.024-.763-7.51-5.249-8.272-8.276a4.349 4.349 0 01.37-3.18.742.742 0 011.179-.185l1.39 1.39a.733.733 0 01.16.809A1.933 1.933 0 014.86 5c-1.15 1.146-.12 3.2 1.407 4.733zm7.347-2.018a4 4 0 00-5.33-5.329.667.667 0 11-.571-1.204 5.333 5.333 0 017.106 7.104.666.666 0 01-1.204-.572l-.001.001zm-2.673-.771a1.333 1.333 0 000-1.885 1.365 1.365 0 00-1.885 0 .667.667 0 01-.943-.943 2.729 2.729 0 013.771 0 2.667 2.667 0 010 3.77.667.667 0 01-.943-.942z" fill="#fff"/></svg><svg fill="none" viewBox="0 0 37 24" id="visa-secure" xmlns="http://www.w3.org/2000/svg"><path fill-rule="evenodd" clip-rule="evenodd" d="M0 1a1 1 0 011-1h35a1 1 0 011 1v22a1 1 0 01-1 1H1a1 1 0 01-1-1V1zm8.03 16.093c0-.142.03-.279.09-.409.063-.132.151-.25.266-.351a1.32 1.32 0 01.413-.241c.159-.061.334-.092.527-.092.185 0 .355.032.51.095a1.17 1.17 0 01.663.647c.062.146.093.305.093.476h-.587a.668.668 0 00-.19-.494.65.65 0 00-.489-.193.892.892 0 00-.292.046.666.666 0 00-.226.128.62.62 0 00-.145.184.457.457 0 00-.048.204c0 .139.051.245.154.32.104.074.232.138.383.193.152.053.318.106.497.159.18.053.347.124.497.214.153.09.28.207.383.354.105.144.157.336.157.574a.913.913 0 01-.097.409c-.064.13-.155.247-.274.351a1.336 1.336 0 01-.425.244 1.68 1.68 0 01-.564.089c-.209 0-.395-.03-.557-.089a1.288 1.288 0 01-.42-.25 1.08 1.08 0 01-.262-.385A1.36 1.36 0 018 18.782h.585c0 .222.061.392.184.51.124.118.31.177.557.177.264 0 .458-.054.582-.162a.505.505 0 00.19-.4.42.42 0 00-.154-.345 1.298 1.298 0 00-.382-.208 7.55 7.55 0 00-.498-.165 2.542 2.542 0 01-.497-.21 1.215 1.215 0 01-.383-.333c-.103-.139-.154-.323-.154-.553zm6.235 2.315v.561h-2.622V16.03h2.562v.562h-1.977v1.063h1.82v.565h-1.82v1.188h2.037zm1.527-.822a1.553 1.553 0 01-.109-.586c0-.212.037-.407.109-.586a1.56 1.56 0 01.283-.467c.119-.133.253-.235.404-.306a1.075 1.075 0 011.158.138c.088.075.163.165.223.268.06.102.106.211.139.327h.618a1.852 1.852 0 00-.218-.531 1.76 1.76 0 00-.361-.437 1.561 1.561 0 00-.492-.296 1.7 1.7 0 00-1.305.043 1.84 1.84 0 00-.588.424A2.096 2.096 0 0015.1 18c0 .283.05.546.15.788.1.242.236.454.404.635.17.181.365.323.588.424a1.7 1.7 0 00.709.153c.223 0 .428-.036.614-.107a1.722 1.722 0 00.866-.736c.098-.167.17-.344.217-.531h-.618a1.342 1.342 0 01-.139.327 1.017 1.017 0 01-.54.452 1.178 1.178 0 01-.4.064c-.161 0-.318-.037-.47-.11a1.33 1.33 0 01-.405-.306 1.614 1.614 0 01-.283-.467zm5.198.883a.855.855 0 00.34-.068.836.836 0 00.458-.485c.045-.114.067-.242.067-.385v-2.5h.588v2.5c0 .212-.036.408-.108.59a1.376 1.376 0 01-.763.773c-.177.07-.37.106-.582.106-.209 0-.402-.036-.579-.107a1.409 1.409 0 01-.46-.305 1.433 1.433 0 01-.302-.467 1.576 1.576 0 01-.109-.59v-2.5h.588v2.5c0 .143.021.271.063.385a.873.873 0 00.459.485.856.856 0 00.34.068zm3.209-1.063h.678l.895 1.564h.649l-.956-1.625a1.303 1.303 0 00.73-.565c.09-.144.135-.332.135-.562a1.202 1.202 0 00-.344-.84 1.12 1.12 0 00-.373-.253 1.113 1.113 0 00-.456-.095h-1.543v3.94h.585v-1.564zm.958-.562H24.2v-1.252h.958a.572.572 0 01.404.186c.055.056.098.12.13.196a.584.584 0 01.051.244.66.66 0 01-.365.577.504.504 0 01-.22.05zM30 19.408v.561h-2.623V16.03h2.563v.562h-1.978v1.063h1.821v.565h-1.82v1.188H30zm-15.91-6.523l1.32-7.754h2.115l-1.322 7.754h-2.114zM12.316 5.14l-2.07 5.288-.22-.799c-.409-.962-1.567-2.343-2.928-3.214l1.893 6.467 2.236-.004 3.328-7.74-2.239.002zm-4.013-.075c.442.017.798.157.92.63l.713 3.425C9.237 7.328 7.55 5.838 5 5.22l.027-.155h3.277zm13.504 1.553c.692-.011 1.193.14 1.582.296l.19.09.287-1.68a5.455 5.455 0 00-1.894-.326c-2.088 0-3.56 1.052-3.571 2.559-.014 1.114 1.048 1.735 1.85 2.107.824.38 1.1.622 1.096.962-.006.519-.656.757-1.264.757-.846 0-1.295-.117-1.99-.406l-.272-.124-.297 1.735c.495.217 1.407.404 2.355.414 2.221 0 3.665-1.04 3.68-2.65.01-.881-.554-1.554-1.776-2.105-.739-.36-1.191-.6-1.187-.963 0-.322.384-.666 1.211-.666zm5.85-1.478h1.632L31 12.89h-1.96s-.195-.891-.258-1.162a2159.315 2159.315 0 01-2.706-.003c-.083.21-.445 1.165-.445 1.165h-2.219l3.138-7.107c.223-.505.6-.643 1.107-.643zm-.132 2.83s-.668 1.723-.842 2.168h1.755l-.49-2.24-.142-.668c-.053.143-.124.328-.182.478-.06.156-.105.273-.1.263z" fill="#545472"/></svg></svg>