<?xml version="1.0" encoding="utf-8"?><svg viewBox="0 0 139 40" xmlns="http://www.w3.org/2000/svg" xmlns:xlink="http://www.w3.org/1999/xlink"><style>:root>svg{display:none}:root>svg:target{display:block}</style><svg fill="none" viewBox="0 0 38 24" id="alfa-bank" xmlns="http://www.w3.org/2000/svg"><path fill-rule="evenodd" clip-rule="evenodd" d="M1.434 0a1 1 0 00-1 1v22a1 1 0 001 1h35a1 1 0 001-1V1a1 1 0 00-1-1h-35zm17.983 3.929zm0 0l.037.023c.107.06.17.26.237.472.032.1.064.203.103.296.13.313.267.713.402 1.108.104.301.207.6.305.857.01.029.023.058.036.087.046.103.095.214.077.34-.128.082-.62.069-.934.06l-.19-.004c-.104 0-.224.003-.35.006-.298.006-.63.013-.861-.012-.064-.15.033-.4.145-.688.068-.175.14-.363.187-.55.02-.087.053-.156.09-.233.023-.049.047-.1.071-.162.063-.16.116-.321.169-.48.038-.115.076-.228.116-.34l.225-.609c.008-.021.013-.04.018-.055.02-.07.026-.088.117-.116zm-2.235 6.237l-1.507-.596c.043-.202.165-.5.27-.759h.001c.043-.106.084-.206.115-.288l1.946-5.105.063-.173c.211-.586.448-1.241 1.357-1.245.902-.003 1.135.632 1.38 1.304l.001.001.05.134 1.944 5.103c.029.078.068.173.11.276.105.258.229.561.263.742-.085.062-1.379.57-1.504.59l-.605-1.682-3.28.005-.604 1.693zm-.598 3.82l-.941-.005c-.215 0-.213-.044-.206-.19l.003-.09-.006-.972v-.016c0-.113 0-.166.026-.19.023-.022.067-.021.15-.02h7.202c.038 0 .085-.003.135-.005.16-.009.357-.019.442.037.062.1.06 1.344-.006 1.418-.084.07-4.706.044-6.799.033zm-.66 6.304v-1.547c.862.1.88 1.431 0 1.547zm-3.938-.693c.299-.027.755-.065.845.205.126.379-.167.491-.49.491l-.216.001-.139-.008v-.69zm-.702 1.297c.348.02 1.096.032 1.423-.006 1.026-.122 1.09-1.307.517-1.723-.255-.185-.514-.184-.8-.182-.137 0-.28.001-.434-.019 0-.056.003-.125.006-.199.009-.219.02-.485-.034-.63l-.69.005.012 2.754zm-3.05-.01c1.075.181 1.074-.921 1.073-1.788 0-.11 0-.218.002-.317l.691-.002v2.12l.72.001v-2.762l-2.06.007-.007.294c-.013.501-.035 1.383-.075 1.555-.05.215-.113.226-.343.268l-.001.623zm23.94-1.42c.073.104.307.357.554.624.307.331.635.686.706.81-.219 0-.382.004-.506.008-.239.006-.334.008-.406-.032-.049-.027-.087-.073-.15-.15A4.34 4.34 0 0032 20.32c-.044-.043-.108-.118-.178-.2-.123-.145-.265-.312-.347-.357l-.002 1.136h-.718v-2.762h.718l.001 1.068.747-.803c.244-.296.312-.293.77-.274.097.005.212.01.35.012a.627.627 0 01-.166.208c-.038.035-.078.072-.122.125-.07.085-.198.221-.334.367-.225.24-.475.507-.545.625zm-3.685.344c.06 0 .138-.003.225-.005.268-.008.62-.019.774.03l.002 1.066h.716l.001-2.763h-.718l-.006 1.029-.99.002-.004-1.024-.715-.006v2.762l.715-.01v-1.081zm-2.03-.119c.029.284-.033.497-.223.608-.59.347-1.063-.406-.557-.582.132-.045.588-.031.77-.026h.01zm-.916-.75c.115-.357.891-.478.925.178-.128.008-.262.006-.396.004-.325-.004-.652-.009-.908.124-.302.157-.507.5-.404.982.083.383.33.62.72.706.55.123.822-.105.974-.232a.571.571 0 01.09-.069c.24.236.387.302.822.25v-.565c-.031-.07-.06-.075-.086-.079-.033-.005-.061-.01-.086-.134l-.01-1.063c-.071-1.36-2.209-1.372-2.374-.102h.733zm-6.274.75c.029.274-.03.484-.2.596-.578.379-1.106-.39-.58-.57.125-.042.473-.034.684-.029l.096.002zm-.915-.75c.122-.361.883-.473.924.18-.106.004-.217.002-.33 0-.347-.007-.707-.013-.974.127-.3.158-.503.5-.406.974.078.38.345.632.72.713.477.103.72-.024 1-.255l.009-.006.012-.01.044-.03.032.03c.205.19.288.266.792.223v-.568c-.04-.08-.07-.078-.095-.077-.031.002-.056.003-.081-.136l-.008-1.06c-.023-.436-.235-.739-.536-.89-.529-.265-1.707-.225-1.84.785h.737zm-12.629.503c.039-.183.489-1.497.555-1.56l.494 1.56H5.725zm-.24.668l1.518-.001.244.788.838.002c-.12-.482-.56-1.731-.874-2.62-.082-.23-.155-.436-.21-.598l-.009-.023c-.139-.4-.239-.688-.759-.655-.44.027-.543.332-.666.695l-.02.06-.754 2.103a31.85 31.85 0 01-.056.146c-.107.279-.253.657-.303.89l.781-.004.27-.783zm16.797.092l-.01-1.003c.083 0 .173-.003.264-.006.533-.017 1.137-.038 1.132.52-.006.537-.63.514-1.137.496a6.865 6.865 0 00-.25-.007zm-.76.697h1.48c.953 0 1.617-.498 1.403-1.498-.187-.875-1.081-.874-2.005-.872h-.11l-.014-.784 1.857-.001.004-.675c-.172-.054-1.456-.038-2.184-.029l-.432.005v3.854zm-6.318-2.163v1.558c-.877-.129-.883-1.416 0-1.558zm-.005-.72a.15.15 0 01-.025.04c-.018.017-.048.023-.138.04l-.063.012c-.457.09-.826.362-1.016.777-.376.82-.004 1.937 1.242 2.075l.005 1.03.72.01.002-1.036c.807-.124 1.361-.564 1.372-1.428.012-.887-.554-1.344-1.371-1.465l-.004-1.027-.72.002v.961c0 .004-.002.007-.004.01z" fill="#545472"/></svg><svg fill="none" viewBox="0 0 38 24" id="baelcart-main" xmlns="http://www.w3.org/2000/svg"><path fill-rule="evenodd" clip-rule="evenodd" d="M1.434 0a1 1 0 00-1 1v22a1 1 0 001 1h35a1 1 0 001-1V1a1 1 0 00-1-1h-35zm2 9a1 1 0 011-1h6a1 1 0 011 1v6a1 1 0 01-1 1h-6a1 1 0 01-1-1V9zm11.503 1.087c.181 0 .346.025.495.075.152.05.282.118.39.203a.908.908 0 01.25.303.802.802 0 010 .732.924.924 0 01-.25.298 1.26 1.26 0 01-.39.203c-.149.05-.314.075-.495.075h-1.503V9h2.448v.661h-1.641v.426h.696zm-.028 1.299a.487.487 0 00.317-.104.322.322 0 00.128-.25.309.309 0 00-.128-.246.474.474 0 00-.317-.109h-.668v.709h.668zM16.662 9h2.504v.661h-1.697v.473h1.557v.661H17.47v.52h1.752v.661h-2.56V9zm6.034 2.976V9H20.22l-.194 1.937a.49.49 0 01-.156.33.45.45 0 01-.317.119h-.112v.59a1.034 1.034 0 00.206.019c.041.003.084.005.128.005.293 0 .53-.079.712-.236.182-.16.288-.39.318-.685l.139-1.418h.946v2.315h.806zm1.472 0h-.807V9h.807v1.276L25.225 9h.918l-1.235 1.465 1.264 1.449L27.398 9h.834l1.252 2.976h-.835l-.222-.567h-1.224l-.223.567H25.31l-1.14-1.323v1.323zm3.647-2.15l.39.993h-.78l.39-.992zM31.152 9c.182 0 .35.027.501.08.152.05.284.123.395.218.111.091.199.198.262.32a.856.856 0 01.094.398.856.856 0 01-.094.397c-.063.122-.15.231-.262.326a1.293 1.293 0 01-.395.217c-.152.05-.319.075-.5.075h-.557v.945h-.807V9h1.363zm0 1.37a.487.487 0 00.318-.104.322.322 0 00.128-.25.309.309 0 00-.128-.246.473.473 0 00-.318-.109h-.556v.71h.556zm2.474 1.606h.807V9.661h1.001V9h-2.81v.661h1.002v2.315zm-19.75 1.973V13h-.442v1.595h.396l.777-.95v.95h.442V13h-.396l-.777.95zm2.82.646V13.43h-.412v.418h-.487v-.418h-.412v1.165h.412v-.418h.487v.418h.411zm.183-1.165h1.234v.33h-.411v.835h-.412v-.836h-.41v-.329zm2.599.96a.491.491 0 00.082-.137l-.426-.025a.143.143 0 01-.049.038.284.284 0 01-.165.038.317.317 0 01-.192-.056.278.278 0 01-.097-.121h.96l.002-.016.004-.022.006-.036a.553.553 0 00-.052-.289.632.632 0 00-.363-.316.818.818 0 00-.268-.043c-.1 0-.193.016-.28.048a.706.706 0 00-.225.13.619.619 0 00-.156.192.538.538 0 000 .479.685.685 0 00.375.32.894.894 0 00.515.015.604.604 0 00.329-.2zm-.75-.61a.307.307 0 01.192-.058c.078 0 .14.019.19.058.05.037.084.08.1.131h-.579a.27.27 0 01.098-.131zm1.867-.362a.691.691 0 01.457.17.565.565 0 01.198.425.592.592 0 01-.198.428.67.67 0 01-.457.167.664.664 0 01-.256-.051.492.492 0 01-.094-.05V15h-.412v-1.57h.305l.061.114a.543.543 0 01.107-.063.935.935 0 01.124-.043.617.617 0 01.165-.02zm.244.595a.25.25 0 00-.088-.2.314.314 0 00-.217-.079.314.314 0 00-.216.079.25.25 0 00-.088.2c0 .082.029.15.088.202a.32.32 0 00.216.076.32.32 0 00.216-.076.258.258 0 00.089-.202zm1.553.582h.412V13.43h-.412v.418h-.487v-.418h-.411v1.165h.41v-.418h.488v.418zm2.012-.342a.49.49 0 01-.082.137.604.604 0 01-.33.2.893.893 0 01-.514-.015.79.79 0 01-.223-.13.686.686 0 01-.152-.192.537.537 0 01-.055-.24c0-.086.019-.166.055-.238a.706.706 0 01.38-.321.806.806 0 01.281-.049c.096 0 .185.014.268.043a.632.632 0 01.363.317.553.553 0 01.052.288l-.006.036a1.83 1.83 0 01-.006.038h-.96a.277.277 0 00.097.121c.051.037.115.056.192.056a.283.283 0 00.165-.038.143.143 0 00.049-.038l.426.025zm-.64-.531a.307.307 0 00-.192.058.268.268 0 00-.097.131h.579a.264.264 0 00-.1-.131.294.294 0 00-.19-.058zm2.01-.292H24.54v.33h.412v.835h.411v-.836h.411v-.329zm1.843-.43v1.595h-.442v-1.24h-.746v1.24h-.442V13h1.63zm1.177.44a.893.893 0 00-.475-.005.565.565 0 00-.183.082.465.465 0 00-.183.281l.411.025a.136.136 0 01.034-.056.247.247 0 01.055-.038.194.194 0 01.094-.02c.053 0 .096.015.131.045s.052.075.052.132c-.16 0-.295.01-.402.03a.842.842 0 00-.256.082.333.333 0 00-.14.123.317.317 0 00-.04.157c0 .097.04.176.122.239.081.06.198.09.35.09a.701.701 0 00.412-.126l.06.114h.305v-.709a.437.437 0 00-.164-.344.533.533 0 00-.183-.101zm-.137.856a.281.281 0 01-.186.058.21.21 0 01-.125-.032.099.099 0 01-.043-.081c0-.022.005-.043.016-.061a.144.144 0 01.064-.048.513.513 0 01.13-.03c.057-.01.13-.013.217-.013v.05a.195.195 0 01-.073.157zm1.536-.878a.691.691 0 01.457.17.565.565 0 01.198.425.592.592 0 01-.198.428.67.67 0 01-.457.167.663.663 0 01-.256-.051.492.492 0 01-.094-.05V15h-.411v-1.57h.304l.061.114a.54.54 0 01.107-.063.93.93 0 01.125-.043.617.617 0 01.164-.02zm.244.595a.25.25 0 00-.088-.2.314.314 0 00-.217-.079.314.314 0 00-.216.079.25.25 0 00-.088.2c0 .082.03.15.088.202a.32.32 0 00.216.076.32.32 0 00.217-.076.258.258 0 00.088-.202zm.649-.238a.521.521 0 00-.055.238.537.537 0 00.21.433c.065.054.14.097.226.129.087.03.18.045.28.045a.77.77 0 00.506-.175.618.618 0 00.152-.192.514.514 0 000-.478.58.58 0 00-.152-.193.7.7 0 00-.229-.129.78.78 0 00-.277-.048c-.1 0-.193.016-.28.048a.706.706 0 00-.381.322zm.877.025a.27.27 0 01.089.213c0 .09-.03.16-.089.212a.314.314 0 01-.216.079.314.314 0 01-.216-.079.27.27 0 01-.089-.212c0-.09.03-.16.089-.213a.314.314 0 01.216-.079c.085 0 .157.027.216.079zm1.964.795h-.411v-.836h-.32l-.046.456a.402.402 0 01-.146.291.56.56 0 01-.357.102c-.02 0-.037-.001-.051-.003a.225.225 0 01-.07-.01v-.291h.045c.061 0 .105-.011.131-.033.026-.024.044-.068.052-.132l.076-.709h1.097v1.165zm1.206-.777a.59.59 0 00-.201-.033h-.29v-.355h-.411v1.165h.7a.558.558 0 00.36-.116.399.399 0 00.104-.13.33.33 0 00.04-.16.371.371 0 00-.143-.286.485.485 0 00-.16-.085zm-.156.466a.196.196 0 01-.122.032h-.213v-.253h.213c.053 0 .094.012.122.036.03.022.046.052.046.09 0 .04-.015.07-.046.095zM6.917 12.52h-.773l.558-.555-.505-.503h.714v-.71l.509.507.564-.563v.776h.697l-.514.513.564.562h-.774v.726l-.535-.533-.505.502v-.722zm2.35.562v1.354h-1.31v-.382L7.008 15l-.927-.924.25-.248H5.02V12.52h.385l-.972-.968.927-.923.24.238V9.574h1.31v.345L7.833 9l.927.924-.244.243H9.88v1.306h-.374l.928.925-.927.924-.24-.239z" fill="#545472"/></svg><svg fill="none" viewBox="0 0 38 24" id="belcart" xmlns="http://www.w3.org/2000/svg"><path fill-rule="evenodd" clip-rule="evenodd" d="M1.434 0a1 1 0 00-1 1v22a1 1 0 001 1h35a1 1 0 001-1V1a1 1 0 00-1-1h-35zM19.8 3l-1.997 1.99v-.747h-2.84v2.805l-.52-.517-2.008 2.001 2.105 2.097h-.834v2.83h2.838l-.54.54 2.008 2 2.056-2.048v.83h2.84v-2.934l.519.517 2.008-2.002-2.011-2.004h.81v-2.83H21.28l.529-.526L19.799 3zm.722 6.47l1.223 1.218h-1.677v1.572l-1.16-1.156-1.094 1.09v-1.565H16.14l1.209-1.203-1.094-1.09h1.548V6.8l1.1 1.097 1.223-1.218v1.68h1.51L20.522 9.47zm-9.79 8.617c.158 0 .3.025.428.075.132.05.244.118.337.203a.89.89 0 01.216.303.905.905 0 010 .732.905.905 0 01-.216.298 1.048 1.048 0 01-.337.203 1.16 1.16 0 01-.427.075H9.434V17h2.115v.662H10.13v.425h.6zm-.023 1.299c.109 0 .2-.035.274-.104a.342.342 0 00.11-.25.327.327 0 00-.11-.246.375.375 0 00-.274-.109h-.577v.709h.577zM12.222 17h2.162v.662h-1.466v.472h1.346v.661h-1.346v.52h1.514v.661h-2.21V17zm5.211 2.976V17h-2.138l-.168 1.937a.525.525 0 01-.135.33.36.36 0 01-.274.119h-.096v.59a.751.751 0 00.178.019c.035.003.072.005.11.005a.83.83 0 00.616-.236c.157-.16.248-.39.274-.685l.12-1.418h.816v2.315h.697zm1.271 0h-.696V17h.696v1.276L19.617 17h.793l-1.067 1.465 1.092 1.449L21.494 17h.72l1.082 2.976h-.721l-.192-.566h-1.058l-.192.566H19.69l-.985-1.322v1.322zm3.15-2.15l.336.993h-.673l.337-.992zM24.736 17c.157 0 .301.027.433.08.131.05.245.123.34.218a.994.994 0 01.227 1.115 1.05 1.05 0 01-.226.326c-.096.091-.21.163-.341.217-.132.05-.276.076-.433.076h-.48v.944h-.697V17h1.177zm0 1.37c.11 0 .2-.035.274-.104a.341.341 0 00.11-.25.326.326 0 00-.11-.246.375.375 0 00-.274-.108h-.48v.708h.48zm2.137 1.606h.696v-2.314h.865V17h-2.426v.662h.865v2.314z" fill="#545472"/></svg><svg fill="none" viewBox="0 0 16 16" id="calendar" xmlns="http://www.w3.org/2000/svg"><rect x="1" y="1" width="14" height="14" rx="2" stroke="#C4C4C4" stroke-width="2"/><path fill="#C4C4C4" d="M4 4h2v2H4zM4 7h2v2H4zM4 10h2v2H4zM7 4h2v2H7zM7 7h2v2H7zM7 10h2v2H7zM10 4h2v2h-2zM10 7h2v2h-2z"/></svg><svg fill="none" viewBox="0 0 139 28" id="logo-manao" xmlns="http://www.w3.org/2000/svg"><path d="M138.653 13.129a9.584 9.584 0 01-.705 3.664 9.345 9.345 0 01-2.058 3.083 9.555 9.555 0 01-3.076 2.073 9.187 9.187 0 01-3.591.721 9.335 9.335 0 01-6.696-2.794 9.22 9.22 0 01-2.05-3.07 9.628 9.628 0 01-.7-3.677 9.69 9.69 0 01.7-3.677 9.323 9.323 0 012.05-3.096 9.327 9.327 0 013.064-2.06 9.43 9.43 0 013.632-.709c1.268 0 2.471.238 3.611.708a9.305 9.305 0 013.056 2.061 9.647 9.647 0 012.058 3.113 9.625 9.625 0 01.705 3.66zm-78.68.076c-.033-.14-.087-.53-.157-1.166-.066-.53-.123-.971-.169-1.32a9.565 9.565 0 01-.308 1.244c-.132.415-.301.835-.503 1.267l-4.268 8.957h-.696l-4.276-9.156a13.874 13.874 0 01-.869-2.311c-.008.382-.037.78-.09 1.2-.054.42-.132.857-.235 1.31l-1.894 8.957h-2.644l4.008-18.195h.513l4.868 10.718c.078.179.201.484.366.904.165.424.362.945.597 1.565.169-.522.437-1.184.799-1.985.095-.216.169-.382.214-.496l4.756-10.706h.51l4.098 18.195h-2.668l-1.952-8.982zm20.109 8.982l-2.002-4.682h-7l-2.05 4.682h-3.015l8.232-18.195h.642l8.223 18.195h-3.03zm-7.94-7.15h4.925l-1.811-4.147a15.963 15.963 0 01-.326-.912 21.027 21.027 0 01-.337-1.15c-.095.4-.198.768-.31 1.112-.106.343-.217.661-.329.95l-1.811 4.147zm12.63 7.15V3.992h.717l10.508 10.405c.305.313.613.649.93 1.005.313.356.643.759.988 1.204V3.994h2.644v18.193h-.72l-10.723-10.61c-.305-.31-.601-.632-.885-.971-.288-.34-.556-.696-.816-1.07v12.65h-2.643zm31.513 0l-2.001-4.682h-7l-2.051 4.682h-3.014l8.231-18.195h.642l8.224 18.195h-3.031zm-7.939-7.15h4.925l-1.812-4.147a15.978 15.978 0 01-.325-.912 21.013 21.013 0 01-.338-1.15 14.67 14.67 0 01-.309 1.112c-.107.343-.218.661-.329.95l-1.812 4.147zm27.317-1.908c0-.92-.165-1.794-.49-2.621a6.832 6.832 0 00-1.404-2.21 6.212 6.212 0 00-2.067-1.471 6.134 6.134 0 00-2.479-.517 6.203 6.203 0 00-4.575 1.989 6.611 6.611 0 00-1.4 2.196 7.213 7.213 0 00-.482 2.634c0 .92.161 1.79.482 2.608a6.79 6.79 0 001.4 2.196 6.257 6.257 0 002.088 1.48c.778.34 1.61.51 2.487.51.86 0 1.676-.17 2.454-.51a6.447 6.447 0 002.092-1.48 6.842 6.842 0 001.404-2.2c.325-.827.49-1.693.49-2.604z" fill="#fff"/><path fill-rule="evenodd" clip-rule="evenodd" d="M17.517 8.358L13.133 0 0 .055l12.023 19.18L17.517 28l5.493-8.765L35.034.055 21.9 0l-4.384 8.358zM.832 3.021L7.27 13.268.832 24.978V3.021zM34.22 3.021l-6.436 10.247 6.436 11.71V3.021z" fill="#fff"/></svg><svg fill="none" viewBox="0 0 17 13" id="mail-icon" xmlns="http://www.w3.org/2000/svg"><path d="M15.583.125H1.417a.708.708 0 00-.709.708v11.334a.708.708 0 00.709.708h14.166a.708.708 0 00.709-.708V.833a.709.709 0 00-.709-.708zm-.708 11.333H2.125V4.713l6.112 2.445c.169.067.357.067.527 0l6.111-2.445v6.745zm0-8.27L8.5 5.737l-6.375-2.55V1.541h12.75v1.645z" fill="#fff"/></svg><svg fill="none" viewBox="0 0 96 20" id="manao-post" xmlns="http://www.w3.org/2000/svg"><path d="M96 9.09c0 .896-.162 1.741-.487 2.537a6.476 6.476 0 01-1.426 2.134 6.614 6.614 0 01-2.13 1.436c-.79.332-1.62.5-2.486.5a6.464 6.464 0 01-4.636-1.935 6.39 6.39 0 01-1.42-2.126 6.677 6.677 0 01-.484-2.546c0-.901.162-1.75.484-2.546a6.46 6.46 0 011.42-2.143 6.46 6.46 0 012.121-1.427 6.53 6.53 0 012.515-.49c.878 0 1.71.164 2.5.49A6.438 6.438 0 0194.088 4.4a6.685 6.685 0 011.425 2.155C95.838 7.358 96 8.2 96 9.09zm-54.476.053a9.889 9.889 0 01-.108-.808c-.046-.367-.086-.672-.117-.913a6.621 6.621 0 01-.214.86 7.291 7.291 0 01-.348.878l-2.955 6.202H37.3l-2.96-6.34a9.57 9.57 0 01-.602-1.6c-.006.265-.026.54-.063.831-.037.29-.091.593-.162.907L32.2 15.362H30.37l2.775-12.598h.356l3.37 7.421c.054.123.14.335.254.626.114.293.25.654.413 1.083.117-.361.302-.82.553-1.374.066-.15.117-.264.148-.344l3.293-7.412h.353l2.838 12.598h-1.848l-1.351-6.22zm13.923 6.219L54.06 12.12h-4.847l-1.42 3.242h-2.086l5.699-12.598h.444l5.694 12.598h-2.098zm-5.497-4.95h3.41L52.105 7.54a11.02 11.02 0 01-.225-.631 14.56 14.56 0 01-.234-.796c-.065.276-.136.531-.214.769-.074.238-.15.458-.228.658L49.95 10.41zm8.744 4.95V2.764h.497l7.275 7.204a17.808 17.808 0 011.329 1.53V2.766h1.83v12.596h-.498l-7.425-7.347c-.21-.214-.416-.437-.613-.672a9.648 9.648 0 01-.565-.74v8.759h-1.83zm21.82 0l-1.386-3.242H74.28l-1.42 3.242h-2.087l5.7-12.598h.444l5.694 12.598h-2.099zm-5.498-4.95h3.41L77.172 7.54a11.097 11.097 0 01-.225-.631 14.471 14.471 0 01-.234-.796 10.01 10.01 0 01-.214.769c-.074.238-.151.458-.228.658l-1.255 2.871zM93.93 9.09c0-.637-.114-1.242-.34-1.815a4.727 4.727 0 00-.971-1.53 4.299 4.299 0 00-1.432-1.018 4.246 4.246 0 00-1.716-.358 4.297 4.297 0 00-3.167 1.377c-.422.44-.747.948-.97 1.52a4.99 4.99 0 00-.333 1.824c0 .637.11 1.24.333 1.806.223.566.548 1.074.97 1.52a4.27 4.27 0 003.168 1.377 4.2 4.2 0 001.698-.352 4.458 4.458 0 001.449-1.024c.422-.447.746-.955.972-1.524.225-.573.34-1.172.34-1.803z" fill="#3F0F72"/><path fill-rule="evenodd" clip-rule="evenodd" d="M12.128 5.787L9.093 0 0 .038l8.325 13.28 3.804 6.069 3.803-6.069L24.256.038 15.164 0l-3.036 5.787zM.576 2.092l4.457 7.095-4.457 8.108V2.092zM23.693 2.092l-4.456 7.095 4.456 8.108V2.092z" fill="#3F0F72"/></svg><svg fill="none" viewBox="0 0 38 25" id="mastercard" xmlns="http://www.w3.org/2000/svg"><path d="M10.188 10.439c-.696 0-1.23.223-1.23.223l-.147.875s.44-.179 1.107-.179c.378 0 .654.042.654.35 0 .186-.033.255-.033.255s-.298-.024-.437-.024c-.877 0-1.8.373-1.8 1.504 0 .89.605 1.094.98 1.094.717 0 1.026-.465 1.041-.466l-.033.388h.894l.398-2.795c0-1.187-1.035-1.225-1.394-1.225zm-.501 3.247c-.315 0-.397-.24-.397-.383 0-.278.15-.612.894-.612.174.001.192.019.221.024.02.171-.106.971-.718.971zM13.416 11.377c.143 0 .693.045.693.045l.128-.896s-.356-.08-.936-.08c-.751 0-1.513.3-1.513 1.326 0 1.162 1.27 1.044 1.27 1.535 0 .326-.354.353-.628.353-.474 0-.9-.162-.902-.155l-.135.888c.024.007.287.124 1.139.124.228 0 1.535.059 1.535-1.29 0-1.261-1.21-1.012-1.21-1.52 0-.252.197-.33.559-.33zM15.551 11.49h.537l.13-.954h-.506l.103-.592H14.8c-.022.021-.599 3.338-.599 3.74 0 .6.336.865.809.86.37-.002.659-.104.76-.133l.128-.863c-.07 0-.172.03-.262.03-.353 0-.392-.188-.37-.327l.285-1.76zM19.804 5.95h-1.81c-.244.33-.473.679-.68 1.021h3.23a9.647 9.647 0 00-.74-1.02zM33.937 17.433a.519.519 0 00-.05-.066.071.071 0 00-.028-.017.104.104 0 00.07-.03.088.088 0 00.01-.112.08.08 0 00-.042-.033.25.25 0 00-.084-.01h-.115v.333h.054v-.141h.031c.019 0 .034.004.042.012a.304.304 0 01.057.077l.03.053h.066l-.041-.066zm-.12-.12h-.066v-.1h.062c.026 0 .043.002.053.005.01.004.017.01.023.018a.045.045 0 01.008.025.047.047 0 01-.017.038c-.011.009-.033.014-.063.014zM21.094 7.973h-4.345c-.278.525-.462.923-.514 1.021h5.27a9.611 9.611 0 00-.411-1.021zM7.059 9.63l-1 2.967-.052-2.966H4.526l-.812 4.833h.98l.617-3.644.09 3.644h.7l1.304-3.644-.578 3.644h1.039l.8-4.833H7.06zM26.641 10.439c-.697 0-1.23.223-1.23.223l-.147.875s.44-.179 1.106-.179c.378 0 .655.042.655.35 0 .186-.035.255-.035.255s-.297-.024-.437-.024c-.877 0-1.798.373-1.798 1.504 0 .89.605 1.094.98 1.094.715 0 1.024-.465 1.04-.466l-.033.388h.893l.399-2.795c.002-1.187-1.034-1.225-1.393-1.225zm-.5 3.247c-.315 0-.397-.24-.397-.383 0-.278.151-.612.895-.612.173.001.191.019.22.024.02.171-.107.971-.717.971zM33.968 14.019a.277.277 0 00-.115-.115.307.307 0 00-.418.421.295.295 0 00.114.115.309.309 0 00.42-.421zm-.042.28a.26.26 0 01-.222.13.26.26 0 01-.258-.257c0-.044.01-.087.035-.128a.257.257 0 01.445.256z" fill="#545472"/><path d="M33.807 14.278a.415.415 0 00-.05-.066.076.076 0 00-.027-.017.102.102 0 00.068-.03.091.091 0 00.026-.064.086.086 0 00-.015-.049.094.094 0 00-.041-.032.255.255 0 00-.085-.01h-.116v.332h.054v-.14h.031c.02 0 .035.003.044.01a.335.335 0 01.056.079l.029.052h.066l-.04-.065zm-.12-.122h-.064v-.101h.06c.027 0 .044.002.054.005.009.005.017.01.022.018a.049.049 0 01-.007.063c-.013.011-.033.015-.064.015zM30.09 10.487c-.454 0-.792.62-.792.62l.091-.57h-.946l-.633 3.934h1.042c.296-1.68.35-3.044 1.055-2.795.124-.65.244-.902.378-1.176 0 0-.063-.013-.195-.013zM32.708 9.636l-.22 1.358s-.38-.528-.98-.528c-.93 0-1.705 1.122-1.705 2.41 0 .832.414 1.646 1.258 1.646.609 0 .946-.424.946-.424l-.044.362h.987l.776-4.826-1.018.002zm-1.287 3.9c-.366 0-.537-.307-.537-.788 0-.787.353-1.306.8-1.306.364 0 .552.251.552.842 0 .536-.266 1.252-.815 1.252z" fill="#545472"/><path d="M36.478 0H1.246A.956.956 0 00.29.956v22.16c0 .528.427.956.956.956h35.232a.956.956 0 00.956-.956V.956A.956.956 0 0036.478 0zm-2.379 17.48a.286.286 0 01-.113.115.312.312 0 01-.307 0 .308.308 0 11.42-.115zm.69-5.444c0 5.265-4.265 9.535-9.53 9.536a9.494 9.494 0 01-6.4-2.466 9.493 9.493 0 01-6.39 2.463c-5.262 0-9.532-4.27-9.532-9.532 0-5.242 4.237-9.5 9.471-9.534h.061c2.459 0 4.7.933 6.392 2.463a9.498 9.498 0 016.393-2.465c5.266-.002 9.534 4.266 9.536 9.53-.002.002-.002.003-.002.005z" fill="#545472"/><path d="M17.884 18.064c.302.37.622.722.975 1.042l.024-.02v-.001h.001c.348-.316.672-.657.968-1.02h-1.968zM19.182 12.832s.134-.658.134-.926c0-.669-.333-1.484-1.447-1.484-1.02 0-1.776 1.1-1.776 2.343 0 1.434.946 1.775 1.753 1.775.744 0 1.072-.167 1.072-.167l.179-.978s-.567.25-1.078.25c-1.09 0-.9-.813-.9-.813h2.063zm-1.31-1.5c.573 0 .467.645.467.696h-1.127c0-.067.107-.695.66-.695zM23.942 10.557c.517 0 .931.29.931.29l.166-1.075s-.614-.249-1.143-.249c-1.171 0-2.31 1.017-2.31 2.926 0 1.266.614 2.102 1.826 2.102.341 0 .887-.139.887-.139l.182-1.107s-.497.249-.84.249c-.72 0-1.009-.55-1.009-1.14 0-1.199.62-1.857 1.31-1.857zM16.611 16.061c.165.355.357.692.563 1.021h3.383a9.53 9.53 0 00.555-1.02h-4.5zM21.567 10.488c-.454 0-.791.62-.791.62l.091-.57h-.945l-.633 3.934h1.041c.296-1.68.351-3.044 1.055-2.795.124-.65.243-.902.378-1.177 0 0-.063-.013-.196-.012z" fill="#545472"/></svg><svg fill="none" viewBox="0 0 38 24" id="mastercard-id" xmlns="http://www.w3.org/2000/svg"><path fill-rule="evenodd" clip-rule="evenodd" d="M.434 1a1 1 0 011-1h35a1 1 0 011 1v22a1 1 0 01-1 1h-35a1 1 0 01-1-1V1zm27.104 16a.917.917 0 01-.313-.053.89.89 0 01-.264-.155.817.817 0 01-.179-.236.676.676 0 01-.065-.296.676.676 0 01.244-.53.808.808 0 01.264-.154.871.871 0 01.313-.056c.07 0 .134.008.19.025a.757.757 0 01.267.117V15h.44v1.984h-.325l-.076-.142a.864.864 0 01-.29.136.882.882 0 01-.206.022zm.496-.74a.357.357 0 00-.126-.287.466.466 0 00-.313-.107.466.466 0 00-.313.107.357.357 0 00-.126.287c0 .12.042.215.126.287a.467.467 0 00.313.107.466.466 0 00.313-.107.357.357 0 00.126-.287zm-11.562-1.071h.382v.346h.381v.331h-.381v.599a.19.19 0 00.065.15.29.29 0 00.183.054h.05a.868.868 0 00.034-.006.17.17 0 00.03-.01v.316a.635.635 0 01-.21.032.8.8 0 01-.24-.036.576.576 0 01-.187-.107.532.532 0 01-.122-.163.522.522 0 01-.042-.215v-.614h-.267v-.3h.114c.14 0 .21-.057.21-.172v-.205zm-6.217.33c.089 0 .165.011.229.032.063.02.115.04.156.063a.396.396 0 01.11.095.687.687 0 01.142-.095.998.998 0 01.164-.063.666.666 0 01.21-.031c.19 0 .343.05.458.15.114.102.171.25.171.448v.866h-.438v-.834a.26.26 0 00-.088-.208.287.287 0 00-.199-.076.3.3 0 00-.202.076.265.265 0 00-.084.208v.834h-.439v-.834a.26.26 0 00-.087-.208.287.287 0 00-.199-.076.3.3 0 00-.202.076.266.266 0 00-.084.208v.834h-.439v-1.449h.325l.076.142a.712.712 0 01.248-.132.546.546 0 01.172-.025zm2.957 0c.099 0 .19.015.274.045a.657.657 0 01.218.116.524.524 0 01.195.407v.897h-.325l-.076-.142a.864.864 0 01-.29.136.882.882 0 01-.206.022c-.19 0-.337-.038-.439-.113a.357.357 0 01-.152-.296c0-.072.016-.137.05-.196a.416.416 0 01.175-.154c.081-.044.188-.078.32-.1.135-.026.303-.039.504-.039a.227.227 0 00-.08-.186.303.303 0 00-.206-.066.334.334 0 00-.142.026.351.351 0 00-.08.053.172.172 0 00-.046.079h-.438a.51.51 0 01.068-.19.556.556 0 01.153-.153.77.77 0 01.225-.104c.09-.028.188-.041.298-.041zm-.134 1.197a.429.429 0 00.275-.081.265.265 0 00.107-.218v-.063c-.13 0-.234.006-.313.016a.698.698 0 00-.187.041c-.043.017-.073.038-.088.063a.16.16 0 00-.023.085c0 .04.022.077.065.11a.272.272 0 00.164.047zm1.819-.066a.203.203 0 01-.084-.122h-.42a.485.485 0 00.202.343c.12.086.294.129.523.129a.95.95 0 00.267-.035.718.718 0 00.206-.097c.056-.04.1-.086.13-.139a.344.344 0 00.046-.17.305.305 0 00-.069-.208.489.489 0 00-.164-.132.884.884 0 00-.218-.076 9.07 9.07 0 00-.213-.05 1.261 1.261 0 01-.168-.054c-.043-.019-.065-.045-.065-.078 0-.04.018-.074.054-.101a.264.264 0 01.156-.041c.066 0 .12.016.164.047.046.032.074.063.084.095h.42a.477.477 0 00-.203-.315c-.111-.084-.273-.126-.484-.126a.826.826 0 00-.458.132.435.435 0 00-.13.142.35.35 0 00-.042.167c0 .084.022.152.065.204a.58.58 0 00.168.126.992.992 0 00.214.073c.079.017.151.033.217.05.066.015.121.032.164.05.046.02.069.046.069.08 0 .04-.023.076-.069.11a.3.3 0 01-.18.047.303.303 0 01-.182-.05zm4.311.057a.6.6 0 00.107-.164h-.458a.322.322 0 01-.076.057.557.557 0 01-.248.053.451.451 0 01-.271-.072.333.333 0 01-.13-.18h1.221l.005-.027.003-.02.007-.044a.652.652 0 00-.065-.35.692.692 0 00-.179-.236.831.831 0 00-.267-.15.973.973 0 00-.324-.054.962.962 0 00-.619.217.812.812 0 00-.19.236.632.632 0 000 .576.828.828 0 00.19.234c.082.067.175.12.28.16a1.01 1.01 0 00.613.016.968.968 0 00.23-.104.751.751 0 00.171-.148zm-.958-.759a.462.462 0 01.283-.082c.114 0 .207.027.278.082.074.055.121.122.141.202h-.84a.364.364 0 01.138-.202zm2.457-.428a.398.398 0 01.095.01l.038.005v.378l-.02-.003-.022-.003a.871.871 0 00-.11-.01.39.39 0 00-.264.089.284.284 0 00-.099.227v.771h-.439v-1.449h.325l.076.158a.511.511 0 01.11-.085.563.563 0 01.31-.088zm2.092 1.137a.67.67 0 00.103-.208h-.439a.327.327 0 01-.084.104.45.45 0 01-.298.1.467.467 0 01-.312-.106.357.357 0 01-.126-.287c0-.12.042-.215.126-.287a.466.466 0 01.313-.107.494.494 0 01.298.104.34.34 0 01.083.1h.439a.759.759 0 00-.282-.381.841.841 0 00-.245-.122.963.963 0 00-.912.17.81.81 0 00-.19.236.632.632 0 000 .576.825.825 0 00.19.234c.082.067.175.12.279.16a1.01 1.01 0 00.633.013.846.846 0 00.424-.3zm1.324-1.137c.1 0 .19.014.275.044a.656.656 0 01.217.116.524.524 0 01.195.407v.897h-.325l-.076-.142a.865.865 0 01-.29.136.883.883 0 01-.206.022c-.19 0-.337-.038-.439-.113a.358.358 0 01-.152-.296c0-.072.016-.137.05-.196a.416.416 0 01.175-.154c.081-.044.188-.078.32-.1.135-.026.303-.039.504-.039a.228.228 0 00-.08-.186.304.304 0 00-.206-.066.334.334 0 00-.142.026.353.353 0 00-.08.053.173.173 0 00-.045.079h-.44a.51.51 0 01.07-.19.558.558 0 01.152-.153.77.77 0 01.225-.104c.09-.028.189-.041.298-.041zm-.134 1.197a.43.43 0 00.275-.082.266.266 0 00.107-.218v-.063c-.13 0-.234.006-.313.016a.7.7 0 00-.187.041c-.043.017-.072.038-.088.063a.16.16 0 00-.023.085c0 .04.022.077.065.11a.271.271 0 00.164.047zm2.284-1.194a.535.535 0 00-.233.025.562.562 0 00-.13.06.511.511 0 00-.11.085l-.076-.158H25.4v1.45h.438v-.772c0-.095.034-.17.1-.227a.39.39 0 01.263-.088.526.526 0 01.11.01l.043.005v-.378l-.039-.006a1.556 1.556 0 00-.042-.006zm-10.041 2.892a.961.961 0 01.981.112.79.79 0 01.192.217c.051.083.09.17.116.264h.424a1.585 1.585 0 00-.184-.394 1.365 1.365 0 00-.669-.536A1.326 1.326 0 0016.63 18c-.192 0-.377.038-.555.114a1.467 1.467 0 00-.465.319 1.583 1.583 0 00-.322.479c-.08.183-.121.379-.121.588 0 .212.04.41.12.59.082.183.189.341.323.477.134.136.29.242.465.319.178.076.363.114.555.114.171 0 .33-.025.475-.076.147-.052.277-.123.39-.215.115-.093.212-.2.291-.323.08-.122.14-.253.184-.394h-.421a1.098 1.098 0 01-.119.266.802.802 0 01-.191.215.942.942 0 01-.609.2.961.961 0 01-.397-.087 1.1 1.1 0 01-.582-.616 1.24 1.24 0 01-.087-.47 1.207 1.207 0 01.325-.84c.1-.106.215-.188.344-.245zm-6.4 2.562h-.398v-2.954h.398v2.954zm1.91-.327c.142 0 .28-.03.412-.087.133-.058.249-.139.349-.24a1.158 1.158 0 00.332-.822c0-.163-.03-.314-.09-.454a1.14 1.14 0 00-.59-.61 1.017 1.017 0 00-.413-.087h-.47v2.3h.47zm1.49-1.15a1.448 1.448 0 01-.438 1.056 1.5 1.5 0 01-1.052.421h-.867v-2.954h.867a1.5 1.5 0 011.052.421c.136.132.242.288.32.47.079.181.118.377.118.586zm6.498-.657c.12 0 .23.023.334.069a.88.88 0 01.465.476c.047.111.07.235.07.37v1.22h-.373v-1.22a.6.6 0 00-.046-.237.57.57 0 00-.119-.188.489.489 0 00-.171-.12.54.54 0 00-.209-.04.598.598 0 00-.431.16.563.563 0 00-.165.426v1.218h-.373v-2.954h.373v1.101a.747.747 0 01.165-.14c.056-.034.123-.066.2-.096a.773.773 0 01.28-.045zm3.408 1.793c.056-.073.103-.147.14-.222h-.397a.787.787 0 01-.075.084.477.477 0 01-.112.08 1.094 1.094 0 01-.15.067.61.61 0 01-.42-.02.733.733 0 01-.2-.131.738.738 0 01-.143-.188.582.582 0 01-.066-.22h1.587a5.524 5.524 0 00.02-.107 1.13 1.13 0 00-.075-.513.984.984 0 00-.529-.548.976.976 0 00-.383-.075 1.006 1.006 0 00-.717.305 1.075 1.075 0 00-.3.773 1.083 1.083 0 00.303.779 1.038 1.038 0 00.739.3.998.998 0 00.579-.176.946.946 0 00.199-.188zm-1.02-1.418a.537.537 0 01.605.12c.112.108.18.256.206.444h-1.214a.74.74 0 01.216-.437.674.674 0 01.186-.127zm2.845-.046a.664.664 0 00-.468.206.737.737 0 00-.15.236.843.843 0 00-.053.307c0 .113.018.216.053.31.038.091.088.17.15.235a.636.636 0 00.468.206.578.578 0 00.378-.135.707.707 0 00.218-.311h.371a1.079 1.079 0 01-.123.302.979.979 0 01-.844.472 1.036 1.036 0 01-.739-.3 1.081 1.081 0 01-.303-.779 1.054 1.054 0 01.303-.774 1.038 1.038 0 011.083-.243.98.98 0 01.5.412c.056.094.097.194.123.3h-.37a.671.671 0 00-.39-.408.576.576 0 00-.207-.035zm1.71 1.805h.373v-1.101l.942 1.101h.446l-.967-1.127.844-.984h-.422l-.843 1.01v-1.853h-.373v2.954zm-8.502-8.283a6 6 0 11.263-9.167 6 6 0 11.263 9.167 5.98 5.98 0 001.737-4.222 5.985 5.985 0 00-2-4.472 5.985 5.985 0 00-2 4.472 5.98 5.98 0 001.737 4.222z" fill="#545472"/></svg><svg fill="none" viewBox="0 0 18 18" id="next-slider" xmlns="http://www.w3.org/2000/svg"><path stroke="#791281" stroke-width="2" stroke-linecap="round" stroke-linejoin="round" d="M9 15.739l7.029-7.03M15.851 8.444l-7.029-7.03M14.452 8.709H1"/></svg><svg fill="none" viewBox="0 0 38 25" id="paypal" xmlns="http://www.w3.org/2000/svg"><path d="M8.116 9.814c-.15-.099-.375-.149-.67-.149l-.251.001a.389.389 0 00-.366.292l-.233 1c-.036.162.067.294.235.294h.188c.417 0 .74-.085.973-.256.232-.17.351-.41.346-.723.001-.207-.073-.361-.222-.46zM12.227 12.118c-.046.001-.393.04-.57.062a2.911 2.911 0 00-.507.115l-.326.222a.58.58 0 00-.113.376l.15.288c.1.056.248.084.438.084.125 0 .26-.03.402-.088l.303-.156.12-.16c.047-.185.145-.597.156-.649l-.053-.094z" fill="#545472"/><path d="M36.333 0H1.101a.956.956 0 00-.956.956v22.16c0 .528.427.956.956.956h35.232a.956.956 0 00.956-.956V.956A.956.956 0 0036.333 0zM9.013 11.678c-.524.385-1.252.577-2.194.578h-.22a.394.394 0 00-.369.292l-.264 1.143a.395.395 0 01-.37.293h-.77c-.166 0-.27-.134-.231-.293l1.081-4.71a.404.404 0 01.37-.295h1.608c.347.003.648.024.908.071.257.05.48.13.67.246.181.115.328.268.42.454.103.185.148.417.148.693 0 .632-.26 1.142-.787 1.527zm4.776-.602l-.03.198-.56 2.428a.398.398 0 01-.332.288l-.01.004h-.716l-.002-.002c-.147-.014-.238-.138-.206-.288v-.002l.001-.004.029-.124-.004-.005-.29.192-.316.176-.372.128a2.15 2.15 0 01-.483.044c-.329 0-.603-.09-.811-.276a.95.95 0 01-.313-.73c0-.316.073-.583.22-.805a1.51 1.51 0 01.662-.523c.273-.124.6-.216.976-.268.382-.055.698-.095 1.135-.123l.11-.068.015-.109a.355.355 0 00-.232-.35c-.157-.065-.392-.098-.7-.098-.21-.003-.472.04-.722.096-.26.06-.332.098-.46.136-.06.02-.202.03-.149-.216l.094-.388s.046-.293.34-.356c.14-.032.163-.038.394-.073a6.11 6.11 0 01.931-.073c.627 0 1.086.082 1.376.246.291.163.44.418.438.76l-.013.185zm1.237 4.784l-.797.002c-.166 0-.22-.132-.12-.294l.683-1.189s.054-.068.005-.456a318.17 318.17 0 00-.628-3.681c-.038-.161.064-.294.23-.294h.69c.21 0 .38.138.419.301l.343 2.067.128.001c.107-.19 1.21-2.081 1.21-2.081.104-.16.317-.294.483-.294 0 0 .741.002.924 0 .273-.004-.022.44-.022.44l-3.067 5.186c-.098.162-.317.292-.481.292zm7.969-4.162c-.526.383-1.258.577-2.2.577h-.22a.397.397 0 00-.369.292l-.26 1.145a.398.398 0 01-.37.289l-.771.002c-.164 0-.272-.132-.232-.292l1.082-4.714c.04-.16.201-.29.368-.292l1.61-.002c.345.002.649.026.904.072a1.9 1.9 0 01.67.245c.183.118.328.268.424.455.098.184.146.417.148.693 0 .63-.264 1.14-.784 1.53zm4.773-.618l-.028.199-.563 2.426a.397.397 0 01-.328.29l-.011.003h-.716v-.004a.224.224 0 01-.206-.288l-.001-.002.003-.002.026-.124-.005-.006-.288.194-.318.176-.371.125c-.115.03-.277.043-.482.046-.33 0-.602-.094-.81-.278a.943.943 0 01-.316-.731c0-.314.073-.582.22-.803.151-.221.372-.393.662-.523a3.59 3.59 0 01.978-.268c.38-.056.696-.096 1.137-.123l.11-.07.012-.108a.352.352 0 00-.233-.349c-.156-.066-.392-.1-.698-.1-.21 0-.475.041-.723.097-.26.06-.33.098-.457.136-.065.02-.203.03-.15-.216l.093-.387s.044-.294.338-.357c.143-.03.166-.038.396-.071.31-.05.622-.075.931-.075.625 0 1.083.083 1.376.247.293.163.44.417.44.76l-.018.186zm2.466-2.044l-1.031 4.67-.036.056c-.061.131-.192.238-.333.238h-.716l-.013-.017c-.136-.02-.225-.13-.192-.274l-.002-.003.031-.135.964-4.381.035-.153.038-.06c.063-.129.19-.233.332-.233h.688c.168 0 .269.13.233.291l.002.001zm1.367-.505h-.258v.343l.002.092.018.062.04.04.08.012.064-.01.048-.014h.006v.112l-.077.016-.073.006-.175-.063-.06-.197V8.53h-.087v-.106h.087V8.21h.127v.214h.258v.106zm1.246.157v.485h-.124v-.427l-.008-.092-.017-.072-.043-.043-.084-.015-.104.027-.107.068.002.036.001.04v.48h-.125v-.428l-.005-.093-.018-.072-.042-.042-.085-.015-.103.025-.105.065v.56h-.123v-.75h.123v.084l.12-.076.124-.028.13.03.08.09.138-.092.135-.028.182.074.06.21h-.002z" fill="#545472"/><path d="M26.207 12.122c-.046-.001-.392.04-.566.062-.2.028-.37.067-.507.115a.781.781 0 00-.33.222.595.595 0 00-.11.376l.15.287c.097.058.243.085.439.085.123 0 .258-.03.4-.087l.3-.156.124-.16c.046-.187.146-.598.154-.65l-.054-.094zM22.092 9.831c-.152-.099-.373-.148-.668-.149l-.25.001a.394.394 0 00-.369.293l-.232 1c-.038.16.07.294.236.292H21c.416 0 .74-.085.972-.252.23-.172.347-.411.346-.726-.004-.205-.076-.36-.226-.459z" fill="#545472"/></svg><svg fill="none" viewBox="0 0 18 18" id="prev-slider" xmlns="http://www.w3.org/2000/svg"><path stroke="#D3D0D6" stroke-width="2" stroke-linecap="round" stroke-linejoin="round" d="M9 2.261l-7.029 7.03M2.148 9.556l7.03 7.03M3.548 9.291H17"/></svg><svg fill="none" viewBox="0 0 37 37" id="services-1" xmlns="http://www.w3.org/2000/svg"><mask id="ma" fill="#fff"><path fill-rule="evenodd" clip-rule="evenodd" d="M15 1a1 1 0 011-1h5a1 1 0 011 1v3.715c0 .45.301.84.726.985.62.212 1.222.47 1.799.768.406.21.906.151 1.23-.172L28.4 3.651a1 1 0 011.414 0l3.535 3.535a1 1 0 010 1.414l-2.702 2.703c-.32.32-.382.812-.178 1.215.286.566.535 1.155.745 1.764.146.421.534.718.98.718H36a1 1 0 011 1v5a1 1 0 01-1 1h-3.5a1.05 1.05 0 00-1 .789 14.226 14.226 0 01-.732 2.063c-.176.395-.105.861.201 1.167l2.38 2.38a1 1 0 010 1.415l-3.535 3.535a1 1 0 01-1.415 0l-2-2a1.053 1.053 0 00-1.278-.146c-.756.442-1.557.811-2.395 1.097a1.053 1.053 0 00-.726.985V36a1 1 0 01-1 1h-5a1 1 0 01-1-1v-2.715c0-.45-.301-.84-.726-.985a13.184 13.184 0 01-2.395-1.097c-.412-.24-.94-.192-1.277.145L8.6 33.35a1 1 0 01-1.415 0l-3.535-3.535a1 1 0 010-1.415l2.38-2.38c.306-.305.377-.772.201-1.167-.294-.662-.54-1.35-.732-2.063a1.05 1.05 0 00-1-.789H1a1 1 0 01-1-1v-5a1 1 0 011-1h3.806c.446 0 .834-.297.98-.718.21-.609.46-1.198.745-1.764a1.049 1.049 0 00-.178-1.215L3.65 8.6a1 1 0 010-1.414l3.535-3.535a1 1 0 011.414 0l2.646 2.645c.323.323.823.383 1.23.172a13.146 13.146 0 011.798-.768c.425-.146.726-.536.726-.985V1z"/></mask><path d="M28.4 3.65l1.414 1.415L28.4 3.65zm1.414 0l1.414-1.413-1.414 1.414zm3.535 3.536l1.415-1.414-1.415 1.414zm0 1.414l1.415 1.415L33.349 8.6zm0 21.214l-1.414-1.415 1.414 1.415zm-3.535 3.535l1.414 1.414-1.414-1.414zm-1.415 0l-1.414 1.414L28.4 33.35zm-19.798 0l-1.415-1.414 1.415 1.414zm-1.415 0l1.415-1.414-1.415 1.414zm-3.535-3.535l-1.414 1.414 1.414-1.414zm0-1.415l-1.414-1.414L3.65 28.4zm0-19.799l-1.414 1.415L3.65 8.6zm0-1.414L5.065 8.6 3.65 7.186zm3.535-3.535L5.772 2.236l1.414 1.415zm1.414 0l1.415-1.415L8.6 3.651zM5.5 22.789l-1.93.522 1.93-.522zm6.379 8.414l-1.01 1.727 1.01-1.727zm-1.277.145l-1.415-1.414 1.415 1.414zM6.03 26.02l1.414 1.415-1.414-1.415zm.201-1.167l1.828-.812-1.828.812zM22.726 32.3l.647 1.893-.647-1.893zm3.028-26.004L24.34 4.882l1.414 1.414zM14.274 32.3l-.647 1.893.647-1.893zM5.786 14.282l-1.89-.653 1.89.653zM31.5 22.789l1.93.522-1.93-.522zm-5.102 8.56l1.415-1.415-1.415 1.414zm-1.277-.146l-1.01-1.726 1.01 1.726zm5.526-19.9l-1.414-1.415 1.414 1.415zm-.178 1.215l1.785-.901-1.785.901zM22.726 5.7l-.646 1.892.646-1.892zM16-2a3 3 0 00-3 3h4a1 1 0 01-1 1v-4zm5 0h-5v4h5v-4zm3 3a3 3 0 00-3-3v4a1 1 0 01-1-1h4zm0 3.715V1h-4v3.715h4zm-1.92 2.877c.525.18 1.035.398 1.525.652l1.84-3.552a15.148 15.148 0 00-2.072-.885L22.08 7.592zm4.905-5.355L24.34 4.882 27.17 7.71l2.645-2.645-2.829-2.829zm4.243 0a3 3 0 00-4.243 0l2.829 2.828a1 1 0 01-1.414 0l2.828-2.829zm3.535 3.535l-3.535-3.536L28.4 5.066 31.935 8.6l2.829-2.828zm0 4.243a3 3 0 000-4.243L31.936 8.6a1 1 0 010-1.414l2.829 2.829zm-2.702 2.702l2.703-2.702-2.829-2.829-2.702 2.702 2.828 2.829zm-3.378.702c.246.486.46.992.64 1.515l3.782-1.305a16.193 16.193 0 00-.85-2.012l-3.572 1.802zM36 13h-3.806v4H36v-4zm3 3a3 3 0 00-3-3v4a1 1 0 01-1-1h4zm0 5v-5h-4v5h4zm-3 3a3 3 0 003-3h-4a1 1 0 011-1v4zm-3.5 0H36v-4h-3.5v4zm-2.93-1.733a12.228 12.228 0 01-.63 1.773l3.655 1.624c.336-.755.616-1.541.835-2.353l-3.86-1.044zm5.193 4.718l-2.38-2.38-2.828 2.829 2.38 2.38 2.828-2.829zm0 4.243a3 3 0 000-4.243l-2.828 2.829a1 1 0 010-1.415l2.828 2.829zm-3.535 3.535l3.535-3.535-2.828-2.829-3.536 3.536 2.829 2.828zm-4.243 0a3 3 0 004.243 0l-2.829-2.828a1 1 0 011.415 0l-2.829 2.828zm-2-2l2 2 2.829-2.828-2.001-2.001-2.829 2.828zm-.873-3.286c-.643.376-1.323.688-2.032.93l1.293 3.786c.965-.33 1.888-.755 2.758-1.263l-2.02-3.453zM24 36v-2.715h-4V36h4zm-3 3a3 3 0 003-3h-4a1 1 0 011-1v4zm-5 0h5v-4h-5v4zm-3-3a3 3 0 003 3v-4a1 1 0 011 1h-4zm0-2.715V36h4v-2.715h-4zm1.92-2.877a11.181 11.181 0 01-2.031-.931l-2.02 3.453c.87.508 1.793.933 2.758 1.263l1.293-3.785zm-4.905 4.355l2-2-2.828-2.829-2 2.001 2.828 2.828zm-4.243 0a3 3 0 004.243 0l-2.829-2.828a1 1 0 011.415 0l-2.829 2.828zm-3.535-3.535l3.535 3.535 2.829-2.828-3.536-3.536-2.828 2.829zm0-4.243a3 3 0 000 4.243l2.828-2.829a1 1 0 010 1.415l-2.828-2.829zm2.38-2.38l-2.38 2.38 2.828 2.829 2.38-2.38-2.828-2.829zm3.443-.565a12.232 12.232 0 01-.63-1.773L3.57 23.31c.22.812.5 1.598.835 2.353L8.06 24.04zM1 24h3.5v-4H1v4zm-3-3a3 3 0 003 3v-4a1 1 0 011 1h-4zm0-5v5h4v-5h-4zm3-3a3 3 0 00-3 3h4a1 1 0 01-1 1v-4zm3.806 0H1v4h3.806v-4zm2.87 1.934c.181-.523.395-1.029.64-1.515l-3.57-1.802c-.327.646-.611 1.318-.85 2.012l3.78 1.305zm-5.44-4.92l2.703 2.703 2.828-2.829-2.702-2.702-2.829 2.829zm0-4.242a3 3 0 000 4.243l2.829-2.829a1 1 0 010 1.414L2.236 5.772zm3.536-3.536L2.236 5.772 5.066 8.6 8.6 5.065 5.772 2.236zm4.243 0a3 3 0 00-4.243 0L8.6 5.065a1 1 0 01-1.414 0l2.829-2.829zm2.645 2.646l-2.645-2.646-2.829 2.829L9.832 7.71l2.828-2.828zm.735 3.362c.49-.254 1-.472 1.525-.652l-1.293-3.785c-.715.244-1.408.541-2.072.885l1.84 3.552zM13 1v3.715h4V1h-4zm1.92 6.592c1.17-.4 2.08-1.506 2.08-2.877h-4c0-.473.308-.799.627-.908l1.293 3.785zM8.317 13.42c.563-1.117.424-2.556-.55-3.53L4.94 12.716a.952.952 0 01-.193-1.1l3.57 1.802zm-.886 8.848C7.089 21.004 5.942 20 4.499 20v4a.951.951 0 01-.93-.689l3.862-1.044zm5.458 7.21c-1.134-.663-2.67-.575-3.702.457l2.829 2.828a.947.947 0 01-1.147.168l2.02-3.453zm16.434-14.543c.404 1.17 1.511 2.066 2.871 2.066v-4c.468 0 .798.303.91.63l-3.78 1.304zm-21.878 12.5c.932-.933 1.102-2.297.615-3.394l-3.655 1.624a.953.953 0 01.212-1.059l2.828 2.829zM9.832 7.71c.987.987 2.445 1.113 3.563.534l-1.84-3.552a.949.949 0 011.105.19L9.832 7.71zM22.08 30.408c-1.17.4-2.08 1.505-2.08 2.877h4a.948.948 0 01-.627.908l-1.293-3.785zm1.525-22.164c1.118.58 2.576.454 3.564-.534L24.34 4.882a.949.949 0 011.105-.19l-1.84 3.552zM17 33.285c0-1.371-.91-2.478-2.08-2.877l-1.293 3.785a.948.948 0 01-.627-.908h4zM4.806 17c1.36 0 2.467-.897 2.87-2.066l-3.78-1.305a.953.953 0 01.91-.629v4zm24.134 7.04c-.487 1.097-.317 2.462.615 3.394l2.828-2.829c.32.32.348.753.212 1.059L28.94 24.04zM32.5 20c-1.442 0-2.59 1.004-2.93 2.267l3.86 1.044a.951.951 0 01-.93.689v-4zm-4.687 9.934c-1.032-1.032-2.568-1.12-3.701-.457l2.019 3.453a.947.947 0 01-1.147-.168l2.829-2.828zm1.42-20.046c-.974.975-1.113 2.414-.55 3.531l3.572-1.802a.952.952 0 01-.194 1.1l-2.828-2.829zM20 4.715c0 1.371.91 2.478 2.08 2.877l1.293-3.785c.319.109.627.435.627.908h-4z" fill="#fff" mask="url(#ma)"/><circle cx="18.5" cy="18.5" r="6.5" stroke="#fff" stroke-width="2"/></svg><svg fill="none" viewBox="0 0 26 34" id="services-2" xmlns="http://www.w3.org/2000/svg"><path d="M15.8 1H2a1 1 0 00-1 1v30a1 1 0 001 1h21.2a1 1 0 001-1V9" stroke="#fff" stroke-width="2"/><path d="M22.508 8H16.8V2.54L22.508 8zM5 8.8h7.2M5 13.6h15.2M5 18.4h15.2M5 23.2h15.2M5 28h15.2" stroke="#fff" stroke-width="2"/></svg><svg fill="none" viewBox="0 0 30 30" id="services-3" xmlns="http://www.w3.org/2000/svg"><mask id="oa" fill="#fff"><rect y="12" width="17.143" height="17.143" rx="1"/></mask><rect y="12" width="17.143" height="17.143" rx="1" stroke="#fff" stroke-width="4" mask="url(#oa)"/><mask id="ob" fill="#fff"><rect width="30" height="29.143" rx="1"/></mask><rect width="30" height="29.143" rx="1" stroke="#fff" stroke-width="4" mask="url(#ob)"/><path stroke="#fff" stroke-width="2" d="M17 8h8M24 15V7M24 8l-6.293 5.707"/></svg><svg fill="none" viewBox="0 0 36 26" id="services-4" xmlns="http://www.w3.org/2000/svg"><path d="M34.01 9.975a4.148 4.148 0 00-4.083-.184l-.705.354v-6.81a1.06 1.06 0 00-1.056-1.061c-2.636 0-4.85 1.853-5.425 4.332L17.051.879a1.05 1.05 0 00-1.492 0c-.168.17-.325.348-.47.533a5.92 5.92 0 00-.84-1.078 1.05 1.05 0 00-1.513-.023L5.763 7.328a11.982 11.982 0 00-3.458 7.453h-1.25C.472 14.78 0 15.256 0 15.842v9.097C0 25.524.472 26 1.055 26h11.297c.163 0 .325-.038.471-.112l22.594-11.37c.357-.18.583-.548.583-.95a4.205 4.205 0 00-1.99-3.593zM14.227 8.634c.168-.17.325-.348.47-.533.24.396.528.765.862 1.1l2.516 2.533v3.39l-4.084 1.644-2.227-4.482a1.217 1.217 0 01.225-1.4l2.238-2.252zm8.367 9.963l-10.492 5.28H2.11v-6.973h1.205c.583 0 1.055-.475 1.055-1.062A9.884 9.884 0 017.255 8.83l6.12-6.16a3.76 3.76 0 01.456 1.803c0 1.004-.39 1.949-1.096 2.66l-2.237 2.252a3.347 3.347 0 00-.621 3.85l2.661 5.356c.245.494.826.716 1.335.511l5.648-2.274c.4-.161.663-.551.663-.985v-4.548c0-.282-.11-.552-.309-.751L17.051 7.7a3.75 3.75 0 01-1.095-2.66c0-.64.158-1.257.455-1.803l6.183 6.222v9.137zm4.518-6.702c0 2.101-.892 4.04-2.409 5.378v-9.39a3.49 3.49 0 012.41-3.321v7.333zm1.318 3.766a9.327 9.327 0 00.77-3.131l1.67-.84a2.063 2.063 0 012.03.091c.442.275.757.693.901 1.176l-5.372 2.704z" fill="#fff"/></svg><svg fill="none" viewBox="0 0 31 34" id="services-5" xmlns="http://www.w3.org/2000/svg"><path d="M12.967 6.114h2.948v3.93h2.303c3.715 0 7.407-1.44 10.184-4.218l.695-.695-.694-.695A14.397 14.397 0 0018.218.218h-2.303v3.93h-2.948V2.183H1.174v5.896h11.793V6.114zm4.913-3.931c.2.034 4.475-.371 8.38 2.948a12.345 12.345 0 01-8.042 2.948h-.338V2.183zM7.07 6.113H3.14V4.149h3.93v1.966zm3.931 0H9.036V4.149H11v1.966z" fill="#fff"/><path stroke="#fff" stroke-width="2" d="M14 16h10v6H14zM1 28h12v5H1zM13 28h11v5H13zM9 23h11v5H9zM20 23h10v5H20z"/></svg><svg fill="none" viewBox="0 0 26 39" id="services-6" xmlns="http://www.w3.org/2000/svg"><mask id="ra" fill="#fff"><path d="M0 2a2 2 0 012-2h22a2 2 0 012 2v19.215a2 2 0 01-2 2h-5.531c-1.212 0-2.32.729-2.603 1.908-.381 1.592-.604 3.78.6 4.932 2.034 1.945 2.005 4.98 0 6.84-1.943 1.803-4.989 1.803-6.933 0-2.004-1.86-2.033-4.895 0-6.84 1.205-1.153.982-3.34.6-4.932-.282-1.179-1.39-1.908-2.602-1.908H2a2 2 0 01-2-2V2z"/></mask><path d="M9.533 36.895l1.36-1.467-1.36 1.467zm6.934 0l-1.36-1.467 1.36 1.467zM2 2h22v-4H2v4zm22 0v19.215h4V2h-4zM2 21.215V2h-4v19.215h4zm5.531 0H2v4h5.531v-4zm16.469 0h-5.531v4H24v-4zm-8.893 14.213a3.12 3.12 0 01-4.213 0l-2.72 2.933c2.71 2.515 6.942 2.515 9.653 0l-2.72-2.933zm-4.213 0c-1.147-1.063-1.193-2.766.022-3.928l-2.765-2.89c-2.852 2.728-2.84 7.096.022 9.75l2.72-2.932zm.022-3.928c1.121-1.073 1.449-2.5 1.51-3.64.061-1.161-.135-2.316-.347-3.203l-3.89.932c.169.705.275 1.44.242 2.059-.034.638-.197.882-.28.962l2.765 2.89zm3.005-6.843c-.212.887-.408 2.042-.346 3.202.06 1.142.388 2.568 1.51 3.64l2.764-2.89c-.083-.08-.246-.323-.28-.962-.033-.619.073-1.353.242-2.058l-3.89-.932zm1.163 6.843c1.215 1.162 1.17 2.864.023 3.928l2.72 2.933c2.862-2.655 2.874-7.023.022-9.751l-2.765 2.89zm3.385-10.285c-1.963 0-4.011 1.204-4.548 3.442l3.89.932a.387.387 0 01.167-.232.857.857 0 01.491-.142v-4zm-10.938 4c.211 0 .382.064.491.142.1.07.147.148.167.232l3.89-.932c-.537-2.238-2.585-3.442-4.548-3.442v4zm-9.531-4a4 4 0 004 4v-4h-4zm26 0v4a4 4 0 004-4h-4zM24 2h4a4 4 0 00-4-4v4zM2-2a4 4 0 00-4 4h4v-4z" fill="#fff" mask="url(#ra)"/><path stroke="#fff" stroke-width="2" d="M0 17.24h26M0 12.095h26"/></svg><svg fill="none" viewBox="0 0 41 40" id="services-7" xmlns="http://www.w3.org/2000/svg"><path d="M3.003 31.216a1 1 0 010-1.415l22.05-22.05a1 1 0 01.547-.28l-.16-.984.16.984 7.956-1.293a1 1 0 011.148 1.147l.95.155-.95-.155-1.293 7.956a1 1 0 01-.28.547l-22.05 22.05a1 1 0 01-1.415 0l-6.663-6.662zM8.707 25.293l8.136 8.135" stroke="#fff" stroke-width="2"/><path d="M23.255 9.492l1.355 2.711 3.051 1.017.678 2.712 3.051 1.695M11.87 21.969l-8.034-8.104a2 2 0 01.006-2.823l5.244-5.244a2 2 0 012.883.056l7.696 8.32m.251 15.8l6.632 6.598a2 2 0 002.825-.004l5.265-5.265a2 2 0 00-.033-2.86l-6.73-6.428M8.26 12.293l-3.151 3.151M28.426 32.459l-3.151 3.151M10.15 16.704l-1.89 1.891M24.015 30.569l-1.891 1.89" stroke="#fff" stroke-width="2"/></svg><svg fill="none" viewBox="0 0 32 32" id="services-8" xmlns="http://www.w3.org/2000/svg"><path d="M21.217 1.932A14.969 14.969 0 0016 1C7.716 1 1 7.716 1 16c0 4.946 2.394 9.333 6.086 12.065m2.787 1.63A14.948 14.948 0 0016 31c8.284 0 15-6.716 15-15 0-5.148-2.593-9.69-6.544-12.391M1.91 28.134h6.226M7.265 29.043v-6.225M29.045 2.818h-6.227M23.69 1.91v6.224" stroke="#fff" stroke-width="2"/></svg><svg fill="none" viewBox="0 0 16 16" id="tel-icon" xmlns="http://www.w3.org/2000/svg"><path d="M6.46 4.958a2.073 2.073 0 00-.433-2.295l-1.39-1.39A2.044 2.044 0 002.867.69a2.067 2.067 0 00-1.534 1.091A5.719 5.719 0 00.85 5.905c.886 3.52 5.723 8.358 9.243 9.244.475.12.963.182 1.453.182.932 0 1.849-.23 2.671-.666a2.072 2.072 0 00.509-3.301l-1.388-1.39a2.076 2.076 0 00-2.296-.435 3.24 3.24 0 00-.98.658c-.341.341-1.594-.153-2.85-1.408C5.955 7.535 5.462 6.281 5.8 5.94c.279-.283.503-.616.66-.981zm-.193 4.775c1.529 1.528 3.585 2.558 4.733 1.408.17-.162.366-.291.582-.383a.733.733 0 01.81.16l1.39 1.39a.725.725 0 01.206.627.742.742 0 01-.394.551 4.346 4.346 0 01-3.177.37c-3.024-.763-7.51-5.249-8.272-8.276a4.349 4.349 0 01.37-3.18.742.742 0 011.179-.185l1.39 1.39a.733.733 0 01.16.809A1.933 1.933 0 014.86 5c-1.15 1.146-.12 3.2 1.407 4.733zm7.347-2.018a4 4 0 00-5.33-5.329.667.667 0 11-.571-1.204 5.333 5.333 0 017.106 7.104.666.666 0 01-1.204-.572l-.001.001zm-2.673-.771a1.333 1.333 0 000-1.885 1.365 1.365 0 00-1.885 0 .667.667 0 01-.943-.943 2.729 2.729 0 013.771 0 2.667 2.667 0 010 3.77.667.667 0 01-.943-.942z" fill="#fff"/></svg><svg fill="none" viewBox="0 0 38 25" id="visa" xmlns="http://www.w3.org/2000/svg"><path d="M36.188 0H.956A.956.956 0 000 .956v22.16c0 .528.427.956.956.956H36.19a.956.956 0 00.956-.956V.956A.956.956 0 0036.188 0zM2.877 7.274H6.84c.535.02.966.191 1.114.763l.863 4.146c-.847-2.169-2.889-3.973-5.974-4.72l.033-.189zm4.797 9.458l-2.29-7.824c1.646 1.054 3.048 2.725 3.542 3.889l.267.966 2.505-6.399h2.71l-4.028 9.366-2.706.002zm8.725.006H13.84l1.598-9.383h2.559l-1.6 9.383zm4.45.14c-1.147-.01-2.251-.238-2.85-.5l.36-2.1.33.15c.84.35 1.383.492 2.407.492.735 0 1.522-.288 1.53-.916.004-.411-.33-.705-1.326-1.165-.97-.449-2.256-1.201-2.24-2.549.014-1.823 1.795-3.096 4.322-3.096a6.6 6.6 0 012.29.394l-.344 2.034-.231-.108a4.719 4.719 0 00-1.914-.36c-1.001 0-1.465.418-1.465.808-.006.439.542.728 1.436 1.164 1.475.67 2.157 1.481 2.148 2.549-.02 1.946-1.765 3.204-4.454 3.204zm11.08-.136s-.233-1.079-.31-1.406l-3.275-.004c-.1.253-.538 1.41-.538 1.41H25.12l3.797-8.599c.27-.61.726-.779 1.34-.779h1.975l2.07 9.377-2.373.001z" fill="#545472"/><path d="M30.609 10.704l-.172-.808c-.13.353-.355.92-.34.895l-1.02 2.623h2.124l-.592-2.71z" fill="#545472"/></svg><svg fill="none" viewBox="0 0 37 24" id="visa-secure" xmlns="http://www.w3.org/2000/svg"><path fill-rule="evenodd" clip-rule="evenodd" d="M0 1a1 1 0 011-1h35a1 1 0 011 1v22a1 1 0 01-1 1H1a1 1 0 01-1-1V1zm8.03 16.093c0-.142.03-.279.09-.409.063-.132.151-.25.266-.351a1.32 1.32 0 01.413-.241c.159-.061.334-.092.527-.092.185 0 .355.032.51.095a1.17 1.17 0 01.663.647c.062.146.093.305.093.476h-.587a.668.668 0 00-.19-.494.65.65 0 00-.489-.193.892.892 0 00-.292.046.666.666 0 00-.226.128.62.62 0 00-.145.184.457.457 0 00-.048.204c0 .139.051.245.154.32.104.074.232.138.383.193.152.053.318.106.497.159.18.053.347.124.497.214.153.09.28.207.383.354.105.144.157.336.157.574a.913.913 0 01-.097.409c-.064.13-.155.247-.274.351a1.336 1.336 0 01-.425.244 1.68 1.68 0 01-.564.089c-.209 0-.395-.03-.557-.089a1.288 1.288 0 01-.42-.25 1.08 1.08 0 01-.262-.385A1.36 1.36 0 018 18.782h.585c0 .222.061.392.184.51.124.118.31.177.557.177.264 0 .458-.054.582-.162a.505.505 0 00.19-.4.42.42 0 00-.154-.345 1.298 1.298 0 00-.382-.208 7.55 7.55 0 00-.498-.165 2.542 2.542 0 01-.497-.21 1.215 1.215 0 01-.383-.333c-.103-.139-.154-.323-.154-.553zm6.235 2.315v.561h-2.622V16.03h2.562v.562h-1.977v1.063h1.82v.565h-1.82v1.188h2.037zm1.527-.822a1.553 1.553 0 01-.109-.586c0-.212.037-.407.109-.586a1.56 1.56 0 01.283-.467c.119-.133.253-.235.404-.306a1.075 1.075 0 011.158.138c.088.075.163.165.223.268.06.102.106.211.139.327h.618a1.852 1.852 0 00-.218-.531 1.76 1.76 0 00-.361-.437 1.561 1.561 0 00-.492-.296 1.7 1.7 0 00-1.305.043 1.84 1.84 0 00-.588.424A2.096 2.096 0 0015.1 18c0 .283.05.546.15.788.1.242.236.454.404.635.17.181.365.323.588.424a1.7 1.7 0 00.709.153c.223 0 .428-.036.614-.107a1.722 1.722 0 00.866-.736c.098-.167.17-.344.217-.531h-.618a1.342 1.342 0 01-.139.327 1.017 1.017 0 01-.54.452 1.178 1.178 0 01-.4.064c-.161 0-.318-.037-.47-.11a1.33 1.33 0 01-.405-.306 1.614 1.614 0 01-.283-.467zm5.198.883a.855.855 0 00.34-.068.836.836 0 00.458-.485c.045-.114.067-.242.067-.385v-2.5h.588v2.5c0 .212-.036.408-.108.59a1.376 1.376 0 01-.763.773c-.177.07-.37.106-.582.106-.209 0-.402-.036-.579-.107a1.409 1.409 0 01-.46-.305 1.433 1.433 0 01-.302-.467 1.576 1.576 0 01-.109-.59v-2.5h.588v2.5c0 .143.021.271.063.385a.873.873 0 00.459.485.856.856 0 00.34.068zm3.209-1.063h.678l.895 1.564h.649l-.956-1.625a1.303 1.303 0 00.73-.565c.09-.144.135-.332.135-.562a1.202 1.202 0 00-.344-.84 1.12 1.12 0 00-.373-.253 1.113 1.113 0 00-.456-.095h-1.543v3.94h.585v-1.564zm.958-.562H24.2v-1.252h.958a.572.572 0 01.404.186c.055.056.098.12.13.196a.584.584 0 01.051.244.66.66 0 01-.365.577.504.504 0 01-.22.05zM30 19.408v.561h-2.623V16.03h2.563v.562h-1.978v1.063h1.821v.565h-1.82v1.188H30zm-15.91-6.523l1.32-7.754h2.115l-1.322 7.754h-2.114zM12.316 5.14l-2.07 5.288-.22-.799c-.409-.962-1.567-2.343-2.928-3.214l1.893 6.467 2.236-.004 3.328-7.74-2.239.002zm-4.013-.075c.442.017.798.157.92.63l.713 3.425C9.237 7.328 7.55 5.838 5 5.22l.027-.155h3.277zm13.504 1.553c.692-.011 1.193.14 1.582.296l.19.09.287-1.68a5.455 5.455 0 00-1.894-.326c-2.088 0-3.56 1.052-3.571 2.559-.014 1.114 1.048 1.735 1.85 2.107.824.38 1.1.622 1.096.962-.006.519-.656.757-1.264.757-.846 0-1.295-.117-1.99-.406l-.272-.124-.297 1.735c.495.217 1.407.404 2.355.414 2.221 0 3.665-1.04 3.68-2.65.01-.881-.554-1.554-1.776-2.105-.739-.36-1.191-.6-1.187-.963 0-.322.384-.666 1.211-.666zm5.85-1.478h1.632L31 12.89h-1.96s-.195-.891-.258-1.162a2159.315 2159.315 0 01-2.706-.003c-.083.21-.445 1.165-.445 1.165h-2.219l3.138-7.107c.223-.505.6-.643 1.107-.643zm-.132 2.83s-.668 1.723-.842 2.168h1.755l-.49-2.24-.142-.668c-.053.143-.124.328-.182.478-.06.156-.105.273-.1.263z" fill="#545472"/></svg></svg>